<?xml version="1.0" standalone="no"?>
<!DOCTYPE svg PUBLIC "-//W3C//DTD SVG 1.1//EN" "http://www.w3.org/Graphics/SVG/1.1/DTD/svg11.dtd" >
<svg xmlns="http://www.w3.org/2000/svg">
<metadata></metadata>
<defs>
<font id="treasure_map_deadhandregular" horiz-adv-x="683" >
<font-face units-per-em="2048" ascent="1638" descent="-410" />
<missing-glyph horiz-adv-x="641" />
<glyph horiz-adv-x="0" />
<glyph horiz-adv-x="682" />
<glyph unicode=" "  horiz-adv-x="641" />
<glyph unicode="&#x09;" horiz-adv-x="641" />
<glyph unicode="&#xa0;" horiz-adv-x="641" />
<glyph unicode="!" horiz-adv-x="533" d="M40 123q0 -29 51 -29q6 0 17 5t17 5q4 0 11.5 -2t11.5 -2q60 1 85 16q39 23 46 32q15 17 16 58q0 40 -36.5 63.5t-79.5 23.5q-42 0 -65 -33q-73 -100 -74 -137zM175 724l16 -28q-6 -46 -6 -56q0 -2 5 -12.5t5 -12.5q-13 -81 -14 -131q0 -23 17 -62q19 -46 39 -41 q67 21 92 76q13 27 25 106q10 68 35 107q2 2 0 8t-2 10q0 67 43 175q4 10 77 170h-16q-148 0 -227 -66q-69 -58 -89 -243z" />
<glyph unicode="&#x22;" horiz-adv-x="670" d="M40 852q2 2 12 1q102 0 168 51q13 10 30 15l33 13q6 8 19 20l4 -2l14 11v6q37 19 36 66q0 8 -2 17q-2 10 0 13l-5 4q-8 52 -37 62l-6 10l-17 2q-75 64 -189 63q-15 0 -13 -9q12 -71 84 -166q10 -13 72 -14q19 0 -11 -24t-59 -45q-6 -4 -71 -37q-50 -25 -62 -57zM416 894 q8 -17 50 -17h52q50 0 52 23q2 13 35 23l-4 15l6 4l4 -2l7 12l-3 7q10 12 11 26q2 8 0 23q-2 17 -2 25t3 21t3 19v6q-2 4 -2 6q0 10 7.5 25t7.5 19q0 10 -7 17l7 14l-17 -2v8q0 31 -56 30q-52 0 -96 -19q-56 -23 -56 -69q0 -60 27 -77q12 -8 75 -14l2 -6l-10 -5 q-8 -23 -32 -43v-9q-25 -4 -47 -18q-27 -19 -17 -42z" />
<glyph unicode="#" horiz-adv-x="1065" d="M40 158q0 -6 8 -6q29 -4 54 -4q64 0 104 33q27 23 75 98q54 89 73 112q39 44 114 44q62 0 62 -52q0 -29 -56 -92.5t-60 -97.5q-4 -35 52 -35q150 0 174 127q19 110 27 125l86 -3q87 -4 126 42l-27 46q-10 2 -25 2q-12 0 -37 -3t-37 -3q-37 0 -50 23q-10 13 -9 33 q0 35 26 71.5t58 48.5q54 12 141 36q31 15 56 54l-16 25q-10 8 -38 6q-23 -4 -44 -6l-20 12q4 31 92.5 120.5t88.5 96.5q0 6 -5 6q-81 4 -129.5 -18t-92.5 -88q-31 -44 -92 -135q-29 -40 -99 -40q-71 0 -71 52q0 23 60 83.5t61 93.5q2 31 -48 31q-44 0 -115 -21 q-42 -13 -56 -66q-8 -29 -8 -100l-27 -21l2 -8l-10 -25q-6 0 -82 8q-39 4 -81 4q-67 0 -72 -41q-4 -25 25 -42q23 -13 51 -14q10 0 30 3t29 3q71 0 72 -52q0 -52 -79 -123q-12 -10 -25 -10q-12 0 -38 8t-40 8q-37 0 -69 -21q-39 -25 -37 -60q2 -27 51 -27q6 0 17 2h17 q46 0 50 -23q6 -31 -90.5 -122.5t-96.5 -97.5zM430 507q-6 33 25 77q44 62 48 77q2 4 6 4q6 0 20 -6t20 -6q13 0 41 6t42 6q10 0 19 -2q2 0 2 -2q0 -4 -6 -8q-15 -10 -17 -13q-15 -46 -60 -131q-6 -2 -27 -2q-6 0 -20 4.5t-20 4.5q-10 0 -32 -9.5t-30 -9.5q-9 0 -11 10z" />
<glyph unicode="$" horiz-adv-x="945" d="M40 237q0 -58 83 -58h31q92 0 93 -54q0 -27 -52 -75q-62 -56 -74 -83l76 6q27 21 65 100q35 73 69 93q62 35 185 67q100 25 133 64q50 58 50 194q0 64 -40.5 136t-94.5 105l29 68l10 -35l40 -16q13 19 43 51q48 33 140.5 99t92.5 136q0 39 -58 38q-15 0 -59.5 -18 t-59.5 -18q-23 -1 -23 30t38 74q48 52 64 67v12l-72 -35q-17 8 -19 8q-21 -15 -49 -83t-51 -81q-35 -21 -133 -54q-91 -33 -131 -62q-62 -44 -62 -113q0 -46 60 -83q96 -60 96 -108q0 -81 -67 -120q-17 -10 -50 -9q-17 0 -50 4.5t-50 4.5q-29 0 -45 -7q-89 -40 -123.5 -94.5 t-34.5 -150.5zM181 308q0 10 17 39q37 62 122 61q31 0 40 -7l-65 -145q-31 -10 -56 -9q-58 0 -58 61zM366 295q0 19 56 94v-2q13 10 31 41q2 27 4 29q10 42 17 82q17 60 46 60q33 0 33 -94q0 -19 -5 -59.5t-5 -60.5q0 -39 -52 -78t-92 -39q-33 0 -33 27zM437 403l4 4z M489 788q0 25 16 62q19 44 38 44t20 -27q0 -21 -25 -52q-20 -23 -41 -50l-4 -4q-4 0 -4 27zM615 846q2 25 42 83q8 10 31 9l17 -2v-11q0 -17 -56 -54q-4 -2 -15 -14l-14 -13q-2 2 -5 2z" />
<glyph unicode="%" horiz-adv-x="1100" d="M40 994q0 -10 7 -29t7 -29q0 -46 29 -90q56 -85 90 -114q54 -42 145 -42q69 0 150 63l-4 2q37 48 47 64q23 39 23 71q0 46 -16 60l2 13q0 50 -142 97q-119 39 -187 38q-27 0 -68 -11q-52 -13 -67 -16l2 -17h2q-19 -27 -20 -60zM154 0q-2 -13 6 -13q91 0 137 13 q81 23 210 291q56 121 165 362l-2 21l120 193q123 200 179 250l-15 8q-50 -6 -147 -25q-46 -13 -75 -73q-17 -52 -36 -104q-12 -33 -64 -95.5t-68 -97.5q-118 -270 -171 -372q-102 -191 -231 -339q-6 -6 -8 -19zM175 932q-2 21 16.5 47.5t37.5 31.5q6 2 37 2q33 0 77 -34 l4 -16q12 -8 23 -16.5t15 -23.5l-7 -10q12 -17 11 -48q0 -27 -27 -56t-54 -29q-6 0 -11 2h-10q-56 12 -75 46l8 16q-14 8 -35 58l10 7q-8 6 -20 23zM603 247q0 -8 4 -25.5t4 -24.5l2 -8q56 -69 81 -81q35 -17 124 -37.5t128 -20.5q71 0 112 35l-6 6q21 92 21 98 q0 96 -69.5 181t-163.5 85q-62 0 -93.5 -12.5t-79.5 -53.5q-58 -48 -58 -119q0 -2 -3 -11t-3 -12zM740 289q2 42 58 81q21 15 48 8q42 -12 50 -47l15 -5q6 -12 20 -35l-8 -10q13 -27 13 -46v-31q0 -12 -4 -15q-17 -17 -46 -41q-8 -4 -19 -2q-10 2 -21 4h2q-73 13 -81 47 q2 4 4 13q-6 21 -23 35l1 7l-1 8l5 10q-13 12 -13 19z" />
<glyph unicode="&#x26;" horiz-adv-x="868" d="M40 200q0 -87 79 -121q37 -15 147 -29q10 0 -6 -14l-17 -13q48 -21 165 -21q129 0 230 38q137 52 137 158q0 23 -33 76.5t-33 72.5q0 12 6 21q127 193 127 318q0 39 -29 38q-60 0 -60 -38q0 -13 11 -38.5t11 -38.5q0 -102 -108 -152q-67 -19 -203 -62q-108 -35 -108 -102 q0 -27 10 -37q46 -44 131 -44q54 0 77 40l-2 22l-36 23q-6 0 -20.5 -5t-20.5 -5q-31 0 -31 27q0 23 93 23q50 0 71 2l27 -11q42 -75 42 -106q0 -92 -219 -114q-58 -6 -97 -6q-33 0 -98 25q-71 27 -85 50q-6 12 -7 31q-2 12 0 33q2 23 2 33q0 35 46 88.5t81 63.5q21 6 52 31 t44 30q6 -2 17 -1l24 11v33q-52 42 -93 90q-56 67 -56 110q0 29 45 91q27 39 171 56l21 -22q91 -15 124 -59l19 5q60 79 60 106q0 102 -130 103q-6 0 -106 -10l2 -4q-372 0 -371 -181q0 -19 79 -145.5t77 -126.5q-66 -35 -99 -56q-50 -33 -81 -71q0 -2 5 -6.5t5 -6.5 q0 -6 -2 -6t-7.5 5t-9.5 3q-29 -17 -52 -110l6 -31q-23 -58 -24 -64z" />
<glyph unicode="'" horiz-adv-x="335" d="M40 871q0 -25 24 -25q12 0 41.5 16.5t42.5 16.5q25 6 60 26t52 26q2 6 12 17l2 -2l9 8v9q19 15 25 110l-6 4q0 6 2 19.5t2 20.5q0 15 -17 24v9l-17 -2q-33 44 -149 45q-56 0 -56 -37q0 -12 23.5 -67.5t33 -60.5t73.5 -11v-6l-6 -5q-6 -17 -78.5 -64.5t-72.5 -70.5z" />
<glyph unicode="(" horiz-adv-x="701" d="M40 385q0 -302 37 -418q56 -177 258 -310q46 -31 295 -166l13 20h2q-33 46 -159 187q-60 73 -162 177l-31 23q-21 21 -50 85q-2 29 -14 81l-25 15l2 17q0 10 -15.5 26.5t-17.5 23.5l8 18q-2 50 -19 148q-4 6 -4 27l-10 14l4 67l12 12q-10 96 121 240q85 89 251 264 q138 149 138 243l-5 31q-54 -39 -295 -241q-249 -210 -262 -237q-25 -50 -48.5 -167.5t-23.5 -179.5z" />
<glyph unicode=")" horiz-adv-x="868" d="M40 -453l2 -23q92 12 334 145q260 144 316 239q69 118 96 258l15 5q8 4 18.5 38t10.5 47q-7 6 -13 18q23 187 23 240q0 54 -19 104l19 56q-33 131 -245 272h-21q-23 19 -105 58.5t-105 39.5q-8 0 -25 2q-15 2 -25 0q-13 0 -19 -8q-40 -37 -41 -53q0 -6 4 -10 q64 -98 197 -150q143 -58 171 -93q73 -87 73 -327q0 -69 -29 -174q-33 -118 -75 -154q-2 -15 -9 -37q-27 -23 -58 -96q-4 -6 -50 -38q-23 -15 -77 -74q-48 -48 -83 -65q-285 -143 -280 -220z" />
<glyph unicode="*" horiz-adv-x="610" d="M40 574q-8 -52 26 -88q19 -21 70 -33t70 -31q8 -6 8 -14q0 -15 -50 -40q-58 -29 -70 -40q-50 -48 -52 -120q0 -15 54 -15q35 0 111 71t109 65q35 -6 115 -64.5t118 -54.5l23 2q15 33 10 42q-48 81 -96 112q-10 4 -49 21q-31 13 -30 25q0 6 5 10q19 23 48 23q6 0 19.5 -2 t19.5 -2q85 0 85 75q0 91 -56 99q-23 2 -68.5 -12.5t-60.5 -30.5l-14 4l-2 15q0 15 20 39q31 39 30 64q0 10 -5 25q-10 29 -116 29q-15 0 -51 -13t-41 -24q-13 -21 -14 -73q0 -10 11.5 -33t11.5 -33q0 -8 -7 -8q-25 0 -70.5 34t-66.5 36q-35 2 -45 -60z" />
<glyph unicode="+" horiz-adv-x="614" d="M40 407q0 -42 4 -53q6 -19 35 -28.5t44 -9.5t57.5 11.5t62.5 7.5q2 0 0 -6t-2 -9q0 -17 -10 -50q-10 -39 -11 -50q-4 -23 34.5 -47.5t63.5 -24.5q58 0 75 12q27 19 23 75q0 13 -15.5 48t-15.5 48q0 19 20 18q23 -4 21 -4q12 0 50 -14.5t58 -12.5l25 2q33 67 29 94 q-8 50 -31 66.5t-77 16.5q-33 0 -97 -15v13q0 -33 22.5 50t18.5 89q-17 31 -118 31q-15 0 -48 -13.5t-42 -25.5q-13 -17 -14 -54q0 2 27 -106l-29 -2q-15 -2 -48 10t-46 12q-17 2 -41.5 -29t-24.5 -50z" />
<glyph unicode="," horiz-adv-x="448" d="M40 -191q2 -8 8 -13q64 0 175 44q46 19 128 62q4 10 17 23l8 -4q2 10 11 25q42 33 35 148l-8 6q8 69 8 54q0 23 -25 33l-4 13q-19 -4 -23 -2q-21 25 -100 45q-69 17 -114 17q-75 0 -75 -54q0 -23 27 -85.5t44 -83.5q8 -12 110 -20v-7l-12 -6q-13 -25 -69 -73 q-12 -10 -77 -52q-33 -21 -64 -70z" />
<glyph unicode="-" d="M40 501q0 -25 40.5 -47t40.5 -49q0 -19 -65 -72h10l3 -4q156 29 205 29q4 0 18 -4.5t18 -4.5q62 12 79 11q39 0 131 -25q85 -23 129 -17q8 2 8 4q0 -44 -85.5 17.5t-85.5 84.5q0 21 19 38q6 6 36 27l-9 6q-4 0 -13.5 3t-13.5 3q-13 0 -43 -7t-44 -7q-21 -4 -60 0 q-52 4 -61 4q-17 0 -53 -10.5t-53 -10.5q-21 0 -71.5 24t-63.5 24q-15 0 -16 -17z" />
<glyph unicode="." horiz-adv-x="360" d="M40 216q0 -31 12 -77v-14q0 -6 6 -20t6 -22q0 -4 -6 -16q-4 -10 2 -9q69 -13 131 -14q2 2 32 8q17 0 54 12q29 19 39 54q6 23 6 67q0 4 6.5 23t2.5 27q-12 23 -61 42q-42 15 -75 16q-6 0 -18.5 -3t-18.5 -3t-20.5 4t-19.5 4q-12 0 -45 -22.5t-33 -56.5z" />
<glyph unicode="/" horiz-adv-x="863" d="M40 -50v-31q40 21 99 50q94 44 162 162q50 108 100 214q137 283 137 322l1 11l130 239q134 245 167 287l-9 2q-64 -31 -149 -75q-48 -25 -75 -87q-8 -19 -37 -113q-15 -39 -66 -101.5t-67 -97.5l-179 -399q-108 -222 -214 -383z" />
<glyph unicode="0" horiz-adv-x="888" d="M40 200q-2 -31 20 -48q10 -8 29 10l-20 -25q0 -58 154 -71q42 -4 209 -4q229 0 323 94l-11 14l11 -2l10 2q13 29 36 117q21 81 41 112v15q-2 22 10 43l-4 17q15 27 11 48q0 4 -7.5 8t-5.5 8q2 6 8.5 19t6.5 23q0 81 -92 108q-48 13 -160 13q-264 0 -466 -111q-4 -2 -4 -4 q0 -4 5 -12q2 -8 0 -11q-67 -77 -67 -195v-10q-19 -23 -19 -88q0 -12 -9 -35t-9 -35zM229 358q2 6 18.5 14t16.5 15q2 8 -6.5 22.5t-8.5 20.5q0 76 104 134q87 48 175 49q15 0 58.5 -19.5t56.5 -30.5l-3 -18l23 -7l13 -26q-21 -12 -19 -15q0 -2 9.5 -2t12.5 -9.5t3 -26.5 q-2 -6 -10.5 -12t-8.5 -8l6 -27q-6 -12 -16 -81q-8 -50 -35 -75q-79 -75 -104 -84.5t-123 -9.5q-129 0 -141 83q-2 8 11 18.5t11 15.5q-19 58 -20 56q0 8 2 14l-2 5q-23 2 -23 4z" />
<glyph unicode="1" horiz-adv-x="761" d="M40 39q2 -15 51 -16q162 0 395 52q31 8 32 27q4 6 -51 33t-55 29q2 6 21 75q15 50 16 75q0 12 -2 35t-2 34l-8 6v14l12 9q25 75 75 168q58 104 106 144q29 25 57 52t47 60l-13 10q-27 -4 -168 -66q-129 -56 -166 -52q-60 8 -135 -19q-87 -33 -94 -85q-4 -25 54 -25 q12 0 37 2t36 2q33 0 39 -12t-57 -207t-81 -213.5t-62.5 -37.5t-59.5 -33q-27 -23 -24 -61z" />
<glyph unicode="2" horiz-adv-x="874" d="M40 23q0 -25 49 -25q92 0 331 94l8 6v14l25 9q-6 -15 -6 -27l2 -3q31 -2 110 -14q69 -10 106 -10q77 0 90 4q46 10 50 60q4 79 10 112q2 15 -16.5 31.5t-33.5 14.5q-25 -4 -60 -39.5t-89.5 -35.5t-154 -28t-149.5 -28q-81 0 -81 21q0 19 98 60q66 31 187 71q40 8 66 31 q25 31 50 60q40 40 112 129q10 17 21 27q23 21 53 106t30 121q0 42 -18 54q-12 6 -59 6q-173 0 -237 -64h-10l12 25q-13 12 -31 12q-56 0 -152 -52q-106 -58 -106 -106q0 -44 50 -44q19 0 53.5 14t52.5 14q13 0 29 -5q10 -4 32.5 7.5t30.5 11.5q64 2 81 -35q12 -21 8 -34 l4 -10q-8 -31 -42 -88.5t-57 -75.5q-58 -42 -173 -125q-133 -96 -175 -152q-8 -10 -60 -58q-40 -37 -41 -56z" />
<glyph unicode="3" horiz-adv-x="934" d="M37 79l29 -4l-2 -27l21 -19q33 -54 204 -54q83 0 197 17q154 25 169 64q54 131 54 141q0 -6 -15 40l-25 -8v6l17 14q-10 17 -71 52q-54 31 -54 50q0 8 5 15q25 48 122 141q118 114 152 156q73 91 67 160l-1 23q-33 21 -66 21q-25 0 -154 -33v4q-291 -64 -291 -156 q0 -46 19 -46q25 2 77 33.5t81 31.5q15 0 45 -5q37 -8 46 -10l15 -27q-10 -15 -15 -73q-4 -40 -58 -85q-31 -25 -125 -62q-79 -31 -110 -75l13 -11l18 1l6 4q42 -19 80 -56q50 -46 51 -80q0 -8 -4 -16q-60 -152 -180 -152q-42 0 -123 21t-123 21q-40 0 -71 -17z" />
<glyph unicode="4" horiz-adv-x="922" d="M40 67q0 -37 12 -71l10 -6q135 40 144 41q6 0 91 -10q64 -2 140 -15q10 -8 6 -21q-13 -48 -65 -158q-46 -100 -58 -162q-2 -13 44 -23q37 -10 58 -10q98 0 123 40q12 17 12 41q0 15 -6 44t-6 45q0 137 68 183l42 9l67 -21q27 0 37 6q56 37 50 108l-2 23l-32 33l-26 -2 l-27 2q-54 -27 -90 -27q-33 0 -33 11q0 -8 18 44l-10 8q12 13 64.5 151t97.5 202q104 148 127 212l-17 23q-48 -13 -137 -56q-200 -139 -399 -304q-302 -252 -303 -340zM223 166q0 33 56 50l2 7q10 2 17.5 15.5t11.5 17.5q42 29 85.5 60t72.5 69q12 15 50 54q21 21 29 21 q4 1 4 -3q2 -25 -19 -56q-23 -37 -27 -48q-29 -108 -29 -124l4 -15l9 -10q-4 -21 -17 -46v-4l2 -15l12 -12l-2 -17h-12l-10 13q-37 0 -46 10v2l-67 11q-10 2 -20 2q-21 -6 -30 -5h-45q-31 2 -31 23z" />
<glyph unicode="5" horiz-adv-x="1102" d="M40 -241v-13l4 2l8 2q21 -17 54 -18q48 0 198 56q171 64 199 71q98 27 166.5 126.5t68.5 203.5q0 81 -37 140l-23 6l-23 48q-17 2 -38 6l-16 33l-67 33q19 19 53.5 69t59.5 69q8 6 62 14l39 6q17 2 21 4q62 25 187 75q119 50 119 102q0 27 -22 51t-49 24 q-29 0 -124.5 -70.5t-147.5 -70.5q-92 0 -123 -13q-60 -27 -120 -104q-50 -58 -133 -179q-13 -19 -27 -39q-21 -29 -13 -35q48 -37 92 -46q29 -6 58 -58l29 -7q56 -60 56 -110q0 -139 -119 -212q-100 -62 -249 -62q-46 0 -85 -33q-25 -21 -58 -71z" />
<glyph unicode="6" horiz-adv-x="1026" d="M40 144q4 -87 122 -86q31 0 91.5 13.5t91.5 13.5q214 0 287 27q137 50 137 225q0 94 -39 141q-23 27 -104 72t-112 78q-6 6 -5 12q0 27 102 75l131 61q98 69 148 116q83 75 110 148l-21 10q-21 -2 -110 -54q-39 -23 -116 -69q-54 -31 -248 -110q-102 -42 -243 -185 q-144 -150 -166 -249q-4 -21 -34 -119q-23 -75 -22 -120zM262 272q-2 12 4 32t6 29q0 25 2 29q10 10 11.5 29t5.5 25q13 19 38 56h10v8l15 7l2 10h10v8q13 0 49 17t55 17h52q13 -10 39 -19q10 -4 9 -31q0 -6 -4 -17q-4 -12 0 -15q31 -52 31 -64q0 -60 -73 -139 q-12 -6 -33 -19q-10 -6 -53 -10.5t-60 -27.5l-2 3l-22 -2l-3 -1q-19 15 -62 46l-10 -2q-8 8 -17 31z" />
<glyph unicode="7" horiz-adv-x="1042" d="M-94 -216l17 -58q39 23 112 110q125 143 135 154q139 146 188 180q8 4 14 -42.5t17 -46.5q17 0 70 136t61 141v16q12 8 185.5 198.5t207.5 240.5q44 54 106 162l-13 13q-195 -118 -424 -117q-52 0 -153 8.5t-153 8.5q-79 0 -141 -148q-8 -17 7.5 -46t34.5 -24 q131 44 218 45q29 0 84 10.5t82 10.5q10 0 131 -12l-4 -23q-37 -50 -424 -493q-356 -407 -358 -424z" />
<glyph unicode="8" horiz-adv-x="961" d="M40 89q0 -81 135 -81q208 0 366 34q256 56 257 187q0 102 -43 176q-23 39 -115 144l-33 10q13 13 42 36q102 64 187 176q98 131 98 235q0 50 -32 67q-23 13 -79 14q-170 0 -353 -66q-235 -85 -235 -220q0 -21 71 -107q79 -98 91 -124q-4 -27 -98 -110 q-121 -110 -168 -167q-91 -110 -91 -204zM214 152q0 48 25 125q27 85 52 85q8 0 15.5 -7.5t13.5 -7.5q13 0 36.5 44t44.5 44q6 0 45.5 12t50.5 12q6 0 6 -4q66 -54 94 -129l48 -33q-6 -62 -57 -127q-19 -23 -123.5 -57t-142.5 -34q-33 0 -70.5 23t-37.5 54zM399 819 q0 71 87 113q71 35 154 35q127 0 90 4q50 -6 50 -44q0 -54 -59 -149q-52 -83 -103 -127q-37 -33 -67 -33l-25 -3q-17 -4 -21 2l-16 1q-8 15 -61 89q-29 39 -29 112z" />
<glyph unicode="9" horiz-adv-x="855" d="M40 -35l4 -13q15 -6 41 -6l6 2l258 193q175 133 237 196q79 81 158 239q84 170 84 268q0 146 -154 146q-46 0 -239 -25q-198 -25 -225 -40q-67 -35 -67 -135q0 -301 107 -353q21 -10 64 -11h67q56 -2 52 -31q-2 -40 -197.5 -221.5t-195.5 -208.5zM304 636q0 19 7 55.5 t7 56.5l-2 3q29 21 83 52q10 2 31 10q6 8 19 21q12 6 48 4q4 0 77 -37l10 2q0 -10 9 -15q15 -12 18 -12q4 -6 0 -15q-6 -13 -6 -15q0 6 15 -54l-7 -12v-40q-27 -139 -203 -156q-23 -6 -56 27q-10 10 -30 60.5t-20 64.5z" />
<glyph unicode=":" horiz-adv-x="522" d="M40 58q0 -2 4 -2q104 15 137 23q83 17 129 44q68 38 68 100q0 39 -64 78q-46 29 -67 28q-6 0 -22 2h-21q-10 0 -19 -5q-98 -62 -116 -128q-2 -4 -15 -34q-8 -21 -8 -35q0 -6 5 -16.5t5 -16.5q2 -6 -7 -21t-9 -17zM143 634q0 -33 36 -73v-37q92 -21 98 -21q75 0 143 83 q62 75 75 154q4 21 -119 21q-66 0 -100 -12q-42 -25 -108 -53q-25 -12 -25 -62z" />
<glyph unicode=";" horiz-adv-x="612" d="M40 -183l2 -8l6 -4q42 27 129 65t125 61q37 10 85 30q8 8 29 22l10 -2l15 6l2 13q50 10 50 100v16l-7 11l1 23q4 46 -27 70l-3 17l-16 2q-75 69 -125 69q-56 0 -97.5 -38.5t-41.5 -94.5v-59q0 -33 54 -39q40 0 81 -2l4 -6q-21 -10 -60.5 -40.5t-51.5 -47.5l-61 -43 q-67 -56 -103 -121zM218 605q0 -44 36 -106q13 -21 43 -21h56q13 0 34 9q155 74 199 253q2 10 -23 9h-35q-27 0 -42 -3h-41q-13 -6 -42 -9t-43 -9q-42 -25 -115 -58q-27 -12 -27 -65z" />
<glyph unicode="&#x3c;" horiz-adv-x="945" d="M39 401q-4 -15 1 -25q39 -62 133 -106q46 -21 137 -64q60 -37 166 -48q37 -4 110 -17l9 -20q73 -23 110 -23q-8 0 68 23l7 2l-19 23l8 24q-17 17 -52 46q-12 8 -39 9.5t-36 5.5q-10 13 -33 35q-39 17 -187 65q-31 10 -62.5 22.5t-47.5 51.5q-12 27 25 38q15 -2 46 6 q15 12 116 46q69 25 118 39q15 2 57 19q19 13 72 38v2l13 18q48 8 94 29q66 29 66 63q0 37 -44 37q-52 0 -164 -54q-81 -39 -135 -75q-13 -10 -58.5 -17.5t-60.5 -19.5q-42 -33 -126 -42l-19 -21q-60 -6 -135 -35q-23 -10 -125 -56q-10 -4 -13 -19z" />
<glyph unicode="=" horiz-adv-x="853" d="M40 353l2 -10h18q19 0 75 21t67 21q10 -2 47 -7v-2q150 -39 260 -39q71 0 140 12q106 17 106 54q0 23 -28 39.5t-53 16.5q-23 0 -71 -17.5t-73 -17.5q-23 0 -67.5 13.5t-63.5 19.5l-4 7q-46 13 -66 14q-75 0 -159 -33q-98 -37 -130 -92zM60 672q8 -56 79 -55 q12 0 36.5 7.5t38.5 5.5q35 -4 121 -33q75 -27 122 -27q67 0 212 52q160 58 158 108h-18q-46 0 -133.5 -36.5t-132.5 -36.5q-52 0 -151 30t-151 30q-127 0 -170 -21q-13 -8 -11 -24z" />
<glyph unicode="&#x3e;" horiz-adv-x="990" d="M40 40h29q29 0 170 51q123 44 160 61q15 8 50 12q44 6 54 7l15 20q42 19 131 40l20 25q62 2 142 39l135 59l17 47q-42 44 -150 96q-125 60 -139 71q-29 23 -86 33q-66 12 -85 21.5t-58 11.5q-52 2 -60 4l-11 19l2 2q-62 27 -118 27q-46 0 -85 -27l20 -23l-12 -27 q15 -17 50 -48q10 -8 41.5 -9t43.5 -9q48 -21 141 -71q15 -12 72 -24.5t76 -21.5q42 -21 62 -62q2 -4 2 -10q0 -23 -24 -30q-19 4 -50 -6q-19 -19 -104 -44q-91 -27 -115 -43q-4 -2 -16 2q-10 2 -13 0q-19 -6 -60 -23q-21 -15 -75 -39l-10 -15q-62 -10 -92 -40 q-13 -13 -70 -76z" />
<glyph unicode="?" horiz-adv-x="691" d="M40 896h2q6 0 21.5 7.5t23.5 7.5q12 0 40.5 -46t65.5 -46q27 0 111 73l85 75q50 0 50 -81q0 -25 -98 -106q-108 -89 -119 -104q-29 -40 -37 -108q-4 -33 -4 -119q0 -52 60 -85q50 -29 106 -29q33 0 46 21l2 14q-25 37 -67 114q-2 2 17 21l-6 9q15 31 15 22l-9 9 q44 94 73 124q12 12 55 27t68 36t74.5 105t49.5 111q0 25 -35 66.5t-60 48.5h-73q-31 0 -90.5 6t-90.5 6q-27 0 -112 -60q-92 -66 -110 -71q-8 -2 -31 -21t-23 -27zM204 54q0 -37 31 -37q12 0 62 18q94 33 113 44q62 34 62 94q0 58 -81 58q-13 0 -44 -11q-92 -35 -135 -126 q-8 -17 -8 -40z" />
<glyph unicode="@" horiz-adv-x="1271" d="M40 341l27 -75q-10 -23 -7 -31q46 -137 260 -137q19 0 298 18q75 4 212 -25q146 -31 212 -31q46 0 87 25l-17 58q-73 54 -178 71q-67 12 -194 11q-6 0 -19.5 -5.5t-19.5 -3.5q-8 2 -25 2q-40 0 -108 -8l-96 -12l-10 12q-19 0 -58.5 -3t-58.5 -3q-69 0 -120 41 q-67 56 -67 109q0 17 6 68q4 42 2 69q0 2 5.5 9t5.5 9q0 13 37 146q35 125 46 160l29 25q4 85 150 143q129 50 220 38l25 14q73 -2 218 -16q146 -25 175 -87v-46q35 -40 33 -56q-4 -27 0 -30q2 -4 -2 -22q-13 -83 -29 -163q-19 -104 -48 -155q-40 -71 -110 -71h-14 q-15 21 -36 64q-6 31 8 77q2 6 17 31q13 19 11 32q0 8 -4.5 23.5t-4.5 23.5l8 38l26 27l-1 8q0 21 50 127l-14 33l-31 6q-17 0 -50.5 -27t-53.5 -24q-19 4 -64.5 26.5t-73.5 22.5q-141 0 -254.5 -107t-113.5 -248q0 -79 49 -136.5t126 -57.5q37 0 91.5 44t76.5 44 q15 0 28 -8q71 -52 205 -127q39 -13 140 -23l31 25l14 35l-8 13q44 62 77 199q39 162 58 210l-6 29l19 25q2 8 12 75q6 42 6 75v96q-6 56 -39 74q-81 44 -166 44q-39 0 -144 -14l-10 16q-281 -23 -387 -48q-208 -48 -305.5 -172.5t-112.5 -344.5q-2 -25 -17 -129 q-17 -116 -24 -125zM464 597q23 91 27 102q27 60 79 60q8 0 22.5 5t22.5 5l11 9q23 -4 70.5 -26t58.5 -22q6 0 27 12v-2l-7 -16l-10 -3q-2 -13 -10 -43q4 8 4 -15q0 -4 -17.5 -36t-19.5 -41q-15 -48 -32 -95q-17 -29 -99 -29q-119 0 -119 77l4 14q4 13 4 15q-15 31 -16 29z " />
<glyph unicode="A" horiz-adv-x="1832" d="M40 110q0 -100 137 -100q135 0 177 38q8 -6 18 -11q104 23 314 75l15 32q79 29 154 153q39 67 114 198q29 50 152 50h29l2 -19q-25 -66 -77 -195q-42 -104 -98 -183l31 -32q52 0 155 -11t155 -11q98 0 98 29q0 38 -65 83q-67 44 -80 65.5t-15 54.5l1 -9q1 0 1 61 q0 15 29 102q0 2 13 65q10 50 24 60q21 15 21 91l9 7q29 98 164 206q79 60 241 180q121 91 121 132q0 29 -50 49q-73 27 -142 27q-237 0 -507 -347q-64 -81 -206 -289q-44 -50 -91 -104q-15 -31 -68 -83t-68 -87q-54 -123 -187 -196q-118 -66 -264 -77q-17 -2 -43 11l-25 14 l-32 23l-10 35q0 79 46 154q52 88 125 88q89 0 89 -67q0 -44 -93 -145v-4q193 24 193 205v13l-33 52q-44 23 -131 23q-106 0 -224.5 -149t-118.5 -257zM1062 618q-1 4 -1 6.5t1 3.5q6 10 21 27q39 29 34 46l14 8q8 15 60 77q33 39 96 114q17 21 39 27q1 -3 1 -18 q0 -10 -34.5 -50t-36.5 -48q-12 -21 -25 -63q0 -81 -60 -106l-5 -14q-33 -33 -55 -33h-5q-13 8 -41 16q-2 2 -3 7z" />
<glyph unicode="B" horiz-adv-x="1234" d="M40 1006q0 -56 66 -187q69 -141 117 -141q44 0 81 41l6 30l-73 72q-35 37 -56 88h2q0 27 37 70l23 27l6 15l-4 2h90l10 12h71q79 0 120 -14l15 -29l-4 -27l4 -36q-23 -48 -100 -282q-71 -216 -104 -266q-83 -127 -135 -167q-10 -6 -69 -35q-39 -17 -81 -85l-10 -30v-31 q83 0 245.5 41.5t245.5 41.5q29 0 86 -4t86 -4q19 0 56.5 8.5t56.5 8.5q64 0 139 -17l18 21l34 6l-8 9l47 2q42 52 42 124q0 131 -81 227q-77 91 -206 129q-17 6 -17 12q0 12 108 42q125 37 154 62q150 127 150 271q0 42 -67 124l-39 -4q-35 0 -104 9.5t-104 9.5 q-69 0 -435 -29q-376 -29 -397 -40l-22 -35v-42zM491 282q25 22 29 32q10 19 71 256q15 13 37 47h15q17 -13 41.5 -15.5t51.5 -4.5q52 -12 87 -29q17 -10 56 -63q10 -15 32.5 -87.5t22.5 -89.5q0 -4 -2.5 -13t-2.5 -13q0 -56 -89 -84q-62 -19 -135 -20q-17 0 -50 -9.5 t-50 -9.5q-37 0 -85 18q-56 20 -56 43q0 18 27 42zM669 740q0 6 4.5 13.5t4.5 13.5q0 4 -4.5 15.5t-4.5 17.5l13 27q-12 21 -10 26q13 10 33 35q-8 13 -13 39q17 69 71 113q29 26 73 26q16 0 35 -4q39 -8 87 -31q13 -10 48 -29q13 -4 13 -52q0 -141 -112 -218 q-19 -8 -59 -25q-72 -44 -112 -44l-21 -4q-13 0 -19 6q-27 35 -27 75z" />
<glyph unicode="C" horiz-adv-x="1111" d="M40 185q0 -25 6 -37q30 -59 238 -59h7q35 0 94 15q73 19 95 21q56 6 167 18q241 27 295 154l-23 27l-35 15q-33 0 -108 -40q-104 -58 -142 -74q-94 -40 -181 -40q-71 0 -135 31q-79 37 -79 100q0 67 42 202q48 150 54 210q2 23 22.5 56t39.5 43l-2 23q54 29 148.5 108.5 t152.5 106.5q87 42 219 43q40 0 199 -12q187 -13 217 -27q17 -6 45 -58q21 -36 58 -36h7q58 6 68 50l13 62q37 40 37 85q0 18 -31 19q-23 0 -67.5 -11.5t-67.5 -11.5q-154 0 -366 -14q-283 -17 -393 -48q-301 -85 -378 -208q-33 -52 -56 -129q-31 -100 -44 -131l6 -10 q-27 -40 -66 -116q-10 -25 -30 -136q-25 -131 -26 -191z" />
<glyph unicode="D" horiz-adv-x="1412" d="M40 69l20 -13q37 12 92 23q10 2 34 -3t32 -5q98 0 294 37l10 11l17 -1q48 0 143.5 22t144.5 22q264 0 368 100q96 94 125 360q4 35 29 124q23 79 23 121q0 12 -10.5 40.5t-9.5 42.5q2 8 17.5 28t15.5 30q0 4 -4 7q-108 131 -277 131q-44 0 -133 -7.5t-133 -7.5l-11 10 l-45 3l-65 -21l-20 6q-222 0 -356 -31q-8 -2 -27 3t-25 5q-100 0 -191 -31l6 -19q0 -4 -12.5 -5t-10.5 -5q6 -12 56 -148q48 -129 69 -168q10 -13 38 -30.5t43 -17.5q77 0 77 91q0 37 -119 150l13 73q12 8 134 32t149 24q13 0 41 -15l6 -8l-12 -81l-15 2l3 -58 q-1 -17 -1 -46v-33l-52 -87q12 -19 11 -36q0 -44 -23 -136t-23 -140q0 -13 -16 -56l-15 -11q-10 -27 -23 -48q-81 -79 -154 -102q-56 -15 -114 -33q-66 -21 -102 -54q-2 -15 -12 -41zM566 283q0 48 64 141q44 66 64 162q10 52 63 285q40 175 104 175q19 0 58 -7.5t58 -7.5 t36 -8l6 -12q8 -6 54 -11q62 -10 106 -71q2 -17 10 -50l-10 -29q25 -44 25 -118q0 -21 -16.5 -62.5t-16.5 -64.5q0 -7 2 -15l-9 -4l-20 -81l-106 -125v-8l-23 -19l4 -14q-35 -27 -132 -55t-147 -28q-8 0 -21.5 3t-19.5 3q-13 0 -38 -8.5t-37 -8.5q-58 0 -58 38z" />
<glyph unicode="E" horiz-adv-x="1373" d="M40 33l22 -14q64 0 185 29q143 35 188 39l131 13l45 2q139 12 399 12q19 0 57.5 -3t57.5 -3q67 0 93 27q40 42 40 119q0 19 -4 41q-8 42 -46 42h-4q-27 -2 -62 -29q-25 -21 -52 -44q-96 -75 -506 -75q-13 0 -38.5 -2t-38.5 -2q-44 0 -37 23q66 189 177 337v21q8 -1 19 -1 q48 1 146 15q120 18 173 17l25 -6l3 -55l-13 -18l10 -27l32 -9q15 0 39 9q12 17 11 48q0 13 -2 29l26 60l9 2l2 21l-2 4q42 77 43 81q0 33 -8 56l-33 11q-29 -17 -54 -52l-48 -63l-31 -14l-48 12q-37 0 -106 -13.5t-106 -13.5q-23 0 -40 11l-6 18l4 21l13 4q15 27 41 87 q12 37 32 111q19 64 54 100l14 -7q33 15 189 42q150 25 198 25q12 1 58 -31q42 -29 58 -29h3q52 12 106 62q33 29 83 96q4 15 14 43l-16 27q-335 -106 -547 -114q-175 -2 -528 -9l-50 -2l-6 -33q15 -25 95 -64q60 -29 60 -56q0 -88 -29 -212q-31 -129 -116 -269 q-94 -156 -119 -230q-15 -44 -135 -115t-124 -102z" />
<glyph unicode="F" horiz-adv-x="1348" d="M40 62q0 -12 8 -27q29 0 80 15.5t80 20.5q10 2 28 -2.5t24 -4.5q181 0 283 34q25 10 66.5 44.5t41.5 57.5q0 8 -25 22l-69 -4q-19 35 -19 61q0 44 52 149q46 96 80.5 136.5t117.5 40.5q23 0 68.5 -4t68.5 -4l25 -6l2 -53l-12 -20q0 -10 10 -25l31 -9l40 9q0 4 7 37t3 38 l25 60q6 -4 19 41q2 4 19 32q13 23 14 31q0 67 -41 68q-19 0 -77 -78q-31 -40 -98 -55q-35 -8 -116 -8h-55q-13 2 -12 27q2 23 29 60.5t33 53.5l38 115q21 62 58 96l15 -5q33 13 176.5 42t176.5 29q67 0 83 -6q8 -2 33 -34q19 -27 34 -22q56 17 141 83q94 73 94 118 q0 19 -25 27q-44 13 -94 13q-96 0 -298.5 -82t-304.5 -82q-92 0 -276.5 12.5t-276.5 12.5q-106 0 -141 -5q-79 -13 -113 -62q-4 -4 -4 -13q0 -67 67 -207q73 -150 125 -150q25 0 62 17l29 54q-64 52 -81 72q-54 57 -54 94q0 17 31 69l11 -1q0 19 12 44q8 4 37 4h38 q13 2 19 7l185 -9l25 -37l-5 -31l13 -31q-66 -197 -102 -300q-110 -312 -322 -435q-92 -54 -135 -106z" />
<glyph unicode="G" horiz-adv-x="1339" d="M40 -378q0 -37 12 -52q31 -40 75 -54q24 -7 80 -7h15q401 0 554 75q118 58 147 202q50 254 67 293q73 175 129 268q33 52 68 104q39 62 46 112q2 10 -4 24t-13 10q-39 -25 -118 -73l-11 10h-183q-19 0 -56 -4t-56 -4l-23 -25q31 -56 110 -77l17 -25q-21 -56 -43 -112 q-27 -64 -65 -96l-6 -29q-33 -25 -125 -29h-133q-87 0 -156 123q-60 108 -60 203q0 64 45 206q48 158 86 173q17 -2 43 4q177 160 497 160q66 0 96.5 -17.5t53.5 -73.5q29 -71 50 -104q6 -10 17 -9q19 0 45.5 24t33.5 45q19 52 120 185q89 119 89 143q0 14 -17 14 q-5 0 -12 -1q-123 -21 -463 -54q-260 -25 -399 -69q-208 -66 -422 -222v-54l-23 -11q-44 -183 -48 -293l16 -18q-2 -23 -2 -46q0 -154 63 -206l6 -62q58 -119 389 -119h98q67 2 101 2q6 0 5 -14q-4 -31 -3 -21q0 -206 -139 -308q-123 -91 -337 -91q-40 0 -77 18 q-44 21 -45 58q0 8 -2 23t0 23q4 19 41.5 31.5t47.5 57t10 48.5l-41 61q-77 -33 -134 -132t-57 -188z" />
<glyph unicode="H" horiz-adv-x="1417" d="M-539 -272l17 -17h21q85 0 287 59.5t305 59.5q25 0 56.5 12t31.5 31q0 29 -67 48q-15 4 -16 29q0 54 87 229l25 10l-6 9q31 42 83 137q25 67 87 201l194 3q29 0 91 16.5t94 16.5l64 -19l21 -52l-2 -25q-56 -52 -58 -116l-15 -6q-17 -62 -21 -125l-60 -59l-92 -4 q-29 -2 -60 -28t-31 -46q0 -13 44 -15q11 -1 25 -1q27 0 64 3l64 4q52 0 142 4q57 3 85 3q14 0 21 -1q10 -2 35 -18.5t40 -14.5q98 12 97 11q23 0 52 -5v17l-4 19q-25 25 -110 46q-75 19 -98 54q-9 13 -9 35q0 19 7 46q6 23 23 176q12 108 52 167v33q62 96 121 193 q75 112 135 181q35 40 125 81q100 44 133 73l-5 17q-21 8 -54 8q-69 0 -286 -56q-85 -21 -134 -36q-100 -31 -128 -54l-11 -33q40 -4 79 -19l79 25q0 -15 -6 -43q-19 -27 -90 -181q-52 -114 -110 -158q-66 -50 -181 -50q-40 0 -114 8q-79 6 -112 7l-61 2l-24 33l12 8 q23 48 56 169q23 87 58 120q48 46 158 56l44 31l-50 42q-40 10 -83 11q-31 0 -83 -1q-60 -2 -83 -2q-187 0 -329 25q-31 6 -31 -25q0 -4 4 -12q29 -52 81 -71q23 -8 85 -18q44 -6 55 -25l2 -19q0 -2 -9.5 -11.5t-9.5 -11.5q4 -19 4 -40q0 -54 -37.5 -156.5t-37.5 -156.5 q0 -69 -97 -223q-46 -125 -94 -251q-78 -173 -220 -173h-3q-60 -23 -178 -71q-133 -58 -136 -120z" />
<glyph unicode="I" horiz-adv-x="878" d="M40 39l8 -12h3q27 1 121 35q100 36 148 36q56 0 167.5 8t167.5 8q17 0 33 15l-2 2q-23 73 -125 87l-50 52q8 48 30 142q-2 6 -3 18q4 40 7 50q8 29 23 46l-7 13l67 210l-4 16q0 29 21.5 92.5t21.5 98.5q0 42 57 90q21 17 118 79q73 46 92 77l-5 16q-254 -102 -338 -102 q-37 0 -108 22t-107 22q-52 0 -60 -25v-35q0 -6 11.5 -25t17.5 -21q62 -19 167 -39l-7 -15l-10 -4l2 -19q0 -2 -34.5 -104t-38.5 -112q-35 -143 -35 -179l-6 -29l4 -10q-29 -139 -36 -163q-27 -96 -70 -149q-15 -19 -83 -54q-81 -42 -106 -59q-52 -39 -52 -79z" />
<glyph unicode="J" horiz-adv-x="1273" d="M42 -474q4 -29 85 -29q239 0 443 81q256 102 301 297q8 35 8 61q0 23 -5 67.5t-5 67.5q0 2 8.5 8t8.5 8q8 200 85 412q58 158 175 378l205 379q9 15 9 25t-9 10q-25 0 -117.5 -61t-275.5 -180q-166 -104 -247 -104q-114 0 -173 29q-71 33 -116 127l-48 25l-33 -11 q-35 8 -64 25l-28 -20l-4 -27q48 -83 179 -115q81 -17 243 -54q227 -56 227 -233q0 -92 -62 -228q-19 -40 -57.5 -121t-57.5 -121q-62 -135 -62 -228q0 -139 -110 -251.5t-248 -112.5q-6 0 -33 -4q-21 -2 -35 0q-13 2 -6 10q25 27 91.5 63.5t92.5 65.5l-31 40 q-106 -2 -222 -88q-114 -84 -114 -171q0 -10 2 -20z" />
<glyph unicode="K" horiz-adv-x="1535" d="M40 46l10 -25l25 -6q54 0 163 35t165 35q164 0 214 48l7 21l-7 23q-40 6 -81 12q-50 10 -76 31l-9 38q8 56 48 127q-4 6 -4 18l27 61l-11 23v56q2 33 19 29q35 -6 58 -52q6 -8 32 -83l37 -11l-2 -33l33 -35l8 -40q31 -23 115 -108q73 -73 125 -100q497 -258 615 -258h8 l23 2q-25 35 -270 181q-255 152 -299 198q-64 66 -100 120q-29 19 -77 59l-4 18l-90 81v28q-35 29 -48 45q-27 29 -31 54q-1 2 -1 5q0 29 78 79q54 25 127 70q29 27 39 31q77 39 342 194q312 183 313 210l-12 6q-370 -69 -576 -119q-10 -12 -37 -25l-23 -27q6 -8 54 -22 q42 -12 44 -27q0 -33 -86 -73l-10 -21q-56 -42 -166 -123q-139 -99 -166 -99h-1q-37 7 -37 36q0 6 2 13q35 152 46 179q17 39 68 58q137 54 160 63l17 46l-89 27q-94 -27 -125 -27q-46 0 -133.5 24.5t-132.5 24.5q-58 0 -94 -35v-29l17 -23q64 -17 87 -33q37 -25 39 -77 l3 -87q-10 -114 -25 -187l10 -17q-10 -50 -31 -152q-19 -87 -56 -139q-4 -6 0 -15q4 -13 4 -18q0 -60 -56 -113q-27 -25 -117 -85q-77 -50 -99 -85z" />
<glyph unicode="L" horiz-adv-x="1308" d="M40 8l22 -8q33 6 84 27q69 27 83 31q225 71 702 71q50 0 150 -24t152 -24l48 8l-34 81q29 15 28 46q0 48 -47 145.5t-86 118.5l-25 -21q-8 -27 -7 -58q0 -23 4 -48l-25 -39q-42 -25 -209 -50q-150 -23 -229 -23q-25 0 -56 17l-11 50q25 23 69 179l83 295q81 252 179 253 q15 0 48 -4t48 -4q98 0 116 62q2 6 2 12q0 27 -39 45q-37 17 -75 18q-15 0 -23 -2q-85 -23 -200 -29h-202q-56 0 -114 -8l-23 -23q29 -40 75 -64l69 4l39 -9l23 -25q-4 -17 -29 -50t-27 -51q-13 -96 -92 -308q-77 -204 -131 -298q-31 -52 -116 -103q-69 -39 -141 -75 q-71 -46 -83 -115z" />
<glyph unicode="M" horiz-adv-x="2192" d="M-171 119l5 -92l58 -54l93 -4q15 -1 29 -1q190 0 391 96q229 110 302 283l89 208q81 193 102 218l21 -14q19 -58 27 -218q2 -69 6 -136q6 -81 27 -135q29 -75 34 -87q13 -42 14 -83l35 -31q123 66 233 216q66 94 196 281q116 162 241 245l2 -11q0 -40 -40 -91 q-62 -75 -68 -85l6 -31l-50 -123l4 -19q0 -25 -10 -73l8 -12q-6 -21 -22 -164q-12 -114 -30 -148l-35 -27l-85 13l-21 -52q83 -56 239 -69q46 -4 252 -4q19 0 43 -11q10 0 73 23q39 13 38 29q0 25 -48 32q-17 4 -52.5 3t-53.5 9q-81 52 -108 112q-17 39 -21 129 q-4 102 -11 137q-6 23 -6 50q0 96 60 194q4 17 17 47q110 168 274 298q29 23 327 231l4 18l-6 4q-15 -6 -31 -6q-17 0 -34 7l-76 -30q-19 15 -32 9q-249 -98 -434 -237q-152 -114 -314 -289q-108 -118 -322 -350l-34 63q15 13 13 21q-31 89 -31 210q0 42 5 125.5t5 125.5 q0 17 4 53.5t4 54.5q0 60 -35 77q-118 58 -324 58q-48 0 -145 -4t-145 -4q-29 0 -89 -13.5t-80 -27t-20 -9.5l-35 -35l-2 -44q-1 -16 -1 -29q0 -67 17 -67q1 -1 5 1q50 50 102 103q58 46 131 46q81 0 193 -39q127 -44 127 -97q0 -69 -79 -194q-10 -15 -121 -173l4 -27 q0 -98 -118 -208q-89 -83 -204 -143q-129 -65 -215 -65h-3q-112 0 -142 46l23 143l61 75q25 13 100.5 17t98.5 23q6 4 6 10q0 15 -60 29q-44 9 -72 9h-5q-89 -1 -187 -113q-92 -106 -92 -192v-11z" />
<glyph unicode="N" horiz-adv-x="1583" d="M40 44q0 -25 6 -44t54 -19q183 0 287 90q85 73 133 222q29 92 87 277l-8 8q8 19 8 46q0 33 -15.5 100.5t-15.5 98.5q0 69 48 69q60 0 118 -239l75 -324l25 -19q25 -139 117 -258q106 -137 234 -148h6q32 0 32 44q0 35 -19 111t-19 109v206q0 139 71 298q69 154 171 253 q122 117 260 117h2q27 0 27 -15q0 -37 -57 -85q-42 -35 -87 -75l-4 -25l8 -25l21 -17l33 -2h9q79 0 172 104q98 110 98 194q0 37 -40 64q-31 21 -60 21q-8 0 -14 -2q-235 -79 -358 -177q-143 -116 -227 -324q-17 -42 -149 -439q-6 -19 -15 -19q-54 0 -214 551q-2 4 -13 2h-8 l17 13q-19 37 -33 102q-17 92 -21 108q-8 31 -15 60q-12 39 -35 46q-135 46 -351 46q-52 0 -156 -3t-156 -3l2 -9q0 -6 -9 -6h-14q-8 0 -8 -4q4 -31 20 -88q48 -102 59 -124q40 -73 78 -110q50 -50 111 -53q19 -2 39.5 24t16.5 45q-4 23 -19 54q-48 35 -60 44q-35 29 -46 54 q-6 13 19 27.5t42.5 14.5t54 5t55.5 5q87 0 95 -98v2q-2 0 -2 -87l-4 -6q-17 -749 -287 -749l-27 4q40 21 67 59l2 64q-46 15 -61 10q-87 -35 -135 -112q-17 -29 -18 -64z" />
<glyph unicode="O" horiz-adv-x="1171" d="M40 310q0 -17 7 -49t7 -49q0 -40 96 -79q85 -35 135 -35h243q6 0 31 20l29 -4q110 0 235 52q160 67 160 167q0 42 62.5 218.5t62.5 217.5q0 33 16.5 94.5t16.5 94.5q0 13 1.5 42t1.5 42q0 54 -28 74q-64 44 -128 44q-29 0 -75 -6q-56 -6 -75 -8l-8 18q-106 -13 -318 -47 q-168 -27 -260 -119q-87 -85 -136 -256q-23 -79 -41 -203q-23 -160 -31 -200q-4 -19 -4 -29zM258 378q21 177 35 244q27 131 85 237q17 4 38 21q0 17 10 45q71 71 129 100q67 33 160 33q44 0 94 -25q77 -39 89 -43l-6 -31l14 2q11 -111 11 -165q0 -10 -8.5 -35t-10.5 -37 q-4 -4 -12 -15l10 -13v-2q0 -19 -10 -51q-12 -40 -13 -52l-23 -140q-10 -58 -68 -114q-13 -12 -40 -65q-15 -29 -99 -61t-125 -32q-19 0 -58.5 4t-58.5 4q-67 -1 -109 61q-35 52 -35 108q0 11 1 22z" />
<glyph unicode="P" horiz-adv-x="1125" d="M40 81q0 -35 24 -35h6q72 0 155 43l41 -4q291 0 385 123l-2 17q-17 8 -42 8h-17q-44 0 -47 25q-2 40 50 188.5t77 156.5q12 4 32 -11.5t30 -13.5q39 8 76.5 16.5t70.5 25.5q339 184 339 407q0 40 -22 65l-40 14q-29 44 -270 44q-81 0 -242.5 -13.5t-242.5 -13.5 q-29 0 -83 15.5t-83 15.5q-37 0 -73 -21q-21 -12 -35 -16q-2 0 -9.5 -15t-7.5 -19q0 -121 61 -179q27 -25 162 -89l-25 -37q8 -17 33 -42q15 -8 50 -8q29 0 51 22.5t22 50.5q0 31 -19 64t-49 39t-92 11q-54 6 -59 44q-1 7 -1 13q0 52 76 70q6 2 13 2q19 0 49 -12 q42 -16 57 -15q13 0 42.5 10t44.5 8q29 -4 29 -47q0 -66 -23 -142q-4 -12 -27 -56q-17 -35 -18 -60q0 -104 -63 -275q-69 -187 -145 -230q-4 -2 -125 -50q-71 -29 -110 -79q-4 -6 -4 -15zM665 667q2 33 24 91.5t30 83.5q2 4 -2 14.5t-4 12.5q0 4 2 6q21 19 42 71t41 69 q33 29 111 29q112 0 112 -85q0 -39 -11 -69q-8 -21 -35 -63q-12 -27 -37 -74q-27 -35 -117 -69q-83 -31 -135 -33q-12 4 -21 16z" />
<glyph unicode="Q" horiz-adv-x="1344" d="M40 -10l2 -11q25 0 111 43.5t121 52.5l54 -17l30 -39l39 -6l8 -1q-10 -15 -12 -37q42 -66 177 -114q119 -42 212 -42q44 0 135 5.5t135 5.5q10 0 17 22l70 -6h9q40 0 124 31l21 34q-46 46 -112 47q-42 0 -127 -18.5t-127 -18.5q-73 0 -164 42q-104 48 -120 110q2 10 6 18 l29 -6q23 -4 37 6l21 -2q102 0 216 59q129 67 150 164q10 40 87 231q42 100 84 201q42 118 43 212q0 -13 2 34v35q0 75 -58 98q-33 13 -125 14q-21 0 -62.5 -8t-62.5 -8q-2 8 -6 16q-260 -52 -320 -68q-198 -54 -304 -137q-143 -112 -155 -281q-2 -67 -9 -244v-12 q0 -83 52 -137q44 -44 44 -69q0 -13 -6 -25q-15 -35 -129 -91q-119 -60 -137 -83zM424 399l4 44q0 27 12.5 77t12.5 77q0 119 77 224q4 6 36 17l14 46q46 35 139 101q64 42 171 42q42 0 95 -25q64 -29 86 -35l-9 -33l15 2q-1 -12 -1 -30.5t1 -42.5q4 -58 4 -73 q0 -13 -11.5 -45.5t-9.5 -45.5q0 -4 -6 -8.5t-6 -6.5l6 -15h4q-62 -229 -116 -330q-100 -191 -260 -191q-17 0 -50 7t-50 7q-54 0 -100 73q-23 37 -54 119q-4 11 -4 31v14z" />
<glyph unicode="R" horiz-adv-x="1302" d="M40 1108q0 -98 89 -218q85 -110 179 -158q8 -4 18 -4q40 0 40 58q0 29 -40 71q-33 27 -64 56q-83 77 -77 97l21 21l25 4q29 0 86 -8t86 -8q48 0 79 16l57 -33q-35 -146 -34 -202l-6 -10v-15q0 -111 -77 -342q-89 -266 -170 -298q-81 -25 -84 -27q-44 -19 -62 -60 q-6 -13 -6 -19q0 -15 37 -16q62 0 181 21.5t181 21.5q37 0 87 21q53 22 53 48q0 4 -1 8q-6 19 -75 40q-53 15 -53 39q0 4 1 8l50 150q27 87 27 154l23 25l100 -10q58 -183 223 -389q152 -193 324 -314q206 -146 380 -146l40 4l19 27q-67 208 -204 271q-13 6 -36 6 q-46 0 -47 -15q0 -12 48 -50q58 -43 64 -51l-19 -25l-35 -7q-27 0 -135 63l-137 81v6q-75 118 -186 195q-4 2 -2 9q4 10 7 12l-48 42l8 31q-13 42 -95 129q-73 79 -73 118q0 21 14 38q46 60 154 110q125 58 160 87q77 64 77 161q0 75 -110 108q-123 39 -491 87 q-358 46 -503 46q-33 0 -62 -17zM663 805q2 4 0 10q-2 10 -2 12q0 19 11.5 36t24.5 37q8 37 37 90q13 12 58 12q27 0 102 -14q60 -12 69 -15q23 -10 43 -48l13 -4l4 -17q-4 -21 -21 -108q-12 -52 -87 -95q-42 -21 -123 -65q-73 -42 -95 -43q-82 0 -82 79q0 68 48 133z" />
<glyph unicode="S" horiz-adv-x="1084" d="M-66 -349q0 -79 43 -104q31 -17 117 -17q56 0 139 17q46 12 141 31q250 44 341 120q121 100 121 327q0 202 -73 349q-42 87 -139 183q-73 73 -73 104q0 112 125 208q114 88 219 88q10 0 20 -1q10 -2 10 -29q0 -48 -70 -116q-35 -33 -104 -100q-8 -10 -7 -54l13 -29 l31 -17q48 79 146 158q92 75 101 81q60 52 90 94q50 67 73 148l-5 31q-10 10 -58 10q-139 0 -314 -50q-185 -54 -309 -137q-171 -116 -171 -268q0 -104 89 -177q54 -44 163 -133q89 -98 89 -260q0 -247 -141 -351q-120 -90 -366 -90h-11l-46 34l-10 60q0 102 77 174.5 t181 72.5q40 0 96 -39l-7 -2l19 2l-8 2l6 29l4 2q-2 0 10 -21q25 13 25 65v10q-48 54 -145 54q-175 0 -303.5 -140.5t-128.5 -318.5z" />
<glyph unicode="T" horiz-adv-x="1283" d="M42 -378q-2 -2 -2 -4q0 -7 32 -7h7q37 0 200 61q173 66 228 76q69 6 136 11q83 12 128 43l-35 38q-21 8 -58 8h-60q-69 2 -69 38q0 68 247 598l250 537q12 40 58 83q13 12 85 65l48 -1q15 0 143.5 41t237.5 41q85 0 168 -23q10 -2 19 -2q44 0 85 54q15 19 58 100l-10 24 q-77 -2 -266 -25q-247 -31 -331 -64q-206 -83 -291 -91q-53 -5 -110 -5h-19q-79 0 -238 11.5t-238 11.5q-94 0 -191 -21v-20q0 -118 100 -162l45 27q15 60 50 66q46 8 106 8q29 0 85.5 -2t85.5 -2q69 0 116 9q15 4 34.5 -2.5t17.5 -22.5q-25 -137 -266 -668 q-245 -541 -324 -619q-39 -39 -130 -103t-132 -107z" />
<glyph unicode="U" horiz-adv-x="1416" d="M40 1090q-2 -35 31 -98q29 -56 58 -86v48q0 27 19 46q27 21 74 21q29 0 85.5 8t85.5 8q54 0 54 -26q0 -6 -2 -13q-46 -125 -94 -324q-54 -225 -54 -329q0 -143 94 -199q73 -44 226 -44q364 0 475 75q85 58 101 247q25 295 71 443q8 23 73 164q52 112 52 154q0 27 -48 27 q-83 0 -146 -33q-77 -37 -97 -110l23 -32l93 -6q-27 -73 -46 -195q-23 -146 -37 -194q-25 -98 -81 -176q-29 -42 -85 -125q-23 -35 -77 -39q-17 -1 -117 -1h-122q-89 0 -137 75q-40 64 -40 158q0 146 48 237q25 48 116 148q83 94 115 168q10 21 -25 29q-184 40 -352 40 q-44 0 -130 -7t-130 -7q-25 0 -54 -15z" />
<glyph unicode="V" horiz-adv-x="1254" d="M40 -198q-1 -6 -1 -11q0 -28 19 -28q44 0 231 202q75 81 331 376q177 204 205 210l11 37q91 40 166 127l2 34q56 23 264 201q129 110 289 241l-8 23l-25 7q-25 0 -177 -52q-58 -21 -176 -61l41 -58q-118 -104 -301 -295q-208 -216 -296 -298q-8 2 -18 7q6 79 75 251 q66 164 66 252q0 15 -6 19q-183 108 -210 122q-137 69 -223 69q-87 0 -143 -50l8 -50l25 -12l88 27q25 -12 81 -42q66 -39 66 -56l73 -52q-6 -94 -17 -154l9 -4q-22 -61 -22 -137l1 -39q0 -44 -36 -128q-54 -123 -153 -231q-123 -137 -146 -172q-73 -112 -93 -275z" />
<glyph unicode="W" horiz-adv-x="1593" d="M40 37q0 -21 58 -22q89 0 170 77q19 17 135 160q83 100 148 133q2 12 6 23l9 -5q4 0 5 9.5t5 11.5q141 96 281 266l10 -4q-4 -10 -52 -193q-29 -112 -81 -183q-52 -60 -108 -140l-4 -29l16 -25q173 56 321 210q87 94 262 281q52 50 168 168q29 25 83 75q39 39 268 190 q206 137 233 187q2 3 2 6q0 9 -23 10q-10 0 -162 -48l-152 -49l15 -61q-141 -102 -333 -297q-231 -233 -318 -308q-10 2 -17 7q48 239 61 289q48 170 135 253q15 15 71 19t75 17l-9 27q-31 17 -104 18q-25 0 -75 3t-76 3q-137 0 -181 -47q-4 -4 -3 -7q0 -6 26.5 -28.5 t28.5 -33.5q1 -5 1 -10q0 -24 -14 -58q-17 -42 -17 -65q0 -4 1.5 -12.5t1.5 -12.5q0 -17 -15 -44q-168 -283 -370 -343q0 6 -2 11q17 21 46 68q31 108 39 171q6 46 6 175q0 123 69 151q23 10 23 27q0 8 -2 15q-13 54 -212 81q-92 12 -277 35l-23 -12l-6 -21q52 -29 154 -89 q85 -52 85 -131q0 -37 -17 -79q-6 -13 9 -36q19 -29 21 -37l-69 -65q39 -79 39 -156q0 -69 -95 -191q-29 -39 -175 -201q-94 -106 -95 -134z" />
<glyph unicode="X" horiz-adv-x="1258" d="M-362 -166q0 -15 42 -15q54 0 202 38q162 42 162 66q0 8 -28.5 22.5t-28.5 21.5q0 2 152 137q175 156 244 224l216 210l68 -105l-10 -5q8 -21 36.5 -38.5t38.5 -31.5q48 -67 68 -144q2 -10 -16.5 -36t-18.5 -32t6 -9q46 -31 194 -50q118 -15 201 -16q21 0 21 16 q0 8 -104 75q-114 75 -135 100q-69 83 -133 187q-91 146 -91 208q0 17 8 27q225 255 628 507v17l-9 15h-45l-333 -100l35 -61q-25 -25 -166 -145q-106 -91 -152 -156l-33 44l8 6q-8 15 -64 102q-39 60 -50 108q-1 2 -1 4q0 16 24 60l-6 19q-123 48 -343 48q-39 0 -52 -19h1 q7 0 103 -62q296 -189 296 -404q0 -9 -1 -18q-8 -129 -223 -310q-102 -87 -272 -212q-198 -150 -281 -193l-89 -46q-69 -37 -69 -54z" />
<glyph unicode="Y" horiz-adv-x="1111" d="M40 1210q31 -37 157 -129q71 -52 173 -218q75 -123 135 -250l-23 -62l4 -10q-25 -106 -41 -167q-23 -91 -44 -179q-37 -135 -58 -155q-27 -23 -137 -69q-89 -37 -114 -92l8 -22q106 21 264 47q2 0 181 15q108 10 177 25q6 2 10 21l-23 45q-81 13 -83 15q-46 15 -54 56 q-1 4 -1 13q0 35 13 139q17 129 31 175q25 85 50 120l2 92l285 316q158 171 333 268l-6 23l-27 8q-31 0 -187 -42q-168 -46 -171 -64q-4 -10 23 -31t21 -31q-58 -91 -148 -179q-56 -54 -170 -162q-8 -8 -16 -8q-22 0 -43 60q-44 118 -52 129q-75 98 -95 128l4 61 q-17 27 -168 75l-208 66z" />
<glyph unicode="Z" horiz-adv-x="1481" d="M40 40q15 -7 42 -7h7q116 0 346 39.5t347 39.5h289q92 0 164 21q15 4 44 50t43 56l-2 35l19 15l2 54v15q0 43 -10 56h-23l-9 -21q-52 -15 -128 -62q-89 -56 -121 -71q-69 -31 -154 -31q-29 0 -85 15.5t-85 15.5q-35 0 -116.5 -25t-108.5 -25q-12 0 -12 6q2 4 10 13 q85 96 640 511q528 394 580 483l-16 12q-129 -52 -137 -54q-44 -12 -148 -12q-66 0 -195 -25t-194 -25q-29 0 -141 10l-117 10q-27 0 -83 8.5t-83 8.5q-39 0 -85 -23l-6 -19q-40 -29 -73 -85t-33 -104q0 -12 4 -23q11 -49 41 -49h4q27 4 75 62t75 66q77 23 150 23 q62 0 152 -16q4 -1 10 -1q28 0 96 15q91 17 118 17q19 0 56.5 7t57.5 7q37 0 26 -23q-19 -48 -92 -87q-6 -4 -127 -54l-4 2q-56 -33 -87 -87l-34 -9q-91 -100 -424 -343q-341 -249 -463 -368z" />
<glyph unicode="[" horiz-adv-x="814" d="M40 25l10 -19q60 37 85 46q37 13 98 17q37 2 110 22.5t110 22.5q23 2 42 27q6 6 4 30l4 4l-66 56q-21 0 -68 -16.5t-70 -16.5q-40 0 -41 25q0 12 24 38t38 41q-2 6 -2 18q62 249 123 483q2 4 23 35q19 25 18 41q-8 15 -8 32q0 58 108 89l19 -10l56 23q58 27 91 83 q21 35 40 66l-33 23q-15 -13 -34 -23l-16 6q-39 -19 -115 -56q-4 -2 -14 1.5t-13 3.5q-12 0 -36 -5.5t-36 -5.5l-7 -14l-39 -3l-12 13l-69 -8l-46 -44l4 -33q-12 -12 -29 -34l-54 -301q-58 -312 -100 -416l5 -23q-19 -37 -59.5 -111t-44.5 -107z" />
<glyph unicode="\" horiz-adv-x="651" d="M40 1235l141 -391q77 -222 102 -401l23 -13q96 -372 185 -445l37 -8q25 -33 96 -73v11q0 19 -56.5 121.5t-56.5 107.5q-4 48 -139 505q-133 449 -145 461q-15 19 -146 108q-19 8 -41 17z" />
<glyph unicode="]" horiz-adv-x="893" d="M40 17q0 -35 79 -34q66 0 185 46q152 58 197 67q94 19 94 210q0 23 -2 69.5t-2 69.5q0 37 20.5 107t20.5 107q-2 17 19 53.5t23 52.5q-4 6 -7 15q10 25 109 214q91 170 91 210q0 17 -23 17t-79 -44t-73 -50l-16 8q-50 -19 -150 -29q-106 -10 -152 -25q-31 -10 -31 -58 q0 -50 54 -50q15 0 36 4l29 -16q27 6 64 24l44 -24q-23 -54 -23 -96q0 -19 -27 -101t-27 -126q0 -12 -11 -31q-17 -23 -20 -29q-15 -81 -21 -102q-17 -67 -38 -93l2 -42q4 -106 -56 -129q-25 -10 -73 -10q-27 0 -74.5 -21t-66.5 -42q-27 -29 -56 -58q-39 -44 -39 -64z" />
<glyph unicode="^" horiz-adv-x="481" d="M42 913q-6 -6 9 -11.5t22 -3.5q77 19 137 81q44 46 44 67l16 4l4 15l15 16q25 0 39 -23q4 -4 -20 -8l-6 -39l12 -9l-2 -16q46 -42 58 -50q31 -21 71 -23q13 0 14 25q0 6 -23.5 62.5t-23.5 64.5q-2 29 4 77q6 56 6 78q0 25 -6 25q-40 -6 -119 -18l-16 -15v-2h-11 q-52 6 -81 -75q-21 -58 -143 -222z" />
<glyph unicode="_" horiz-adv-x="1333" d="M40 -285q0 -15 79 -16q83 0 248 6t248 6q50 0 149 8.5t149 8.5q52 0 153.5 -12.5t153.5 -12.5q12 0 36.5 -4.5t38.5 -4.5q12 0 11 4q0 3 -4 5q-13 13 -56.5 26t-56.5 32q-4 19 -10 54l10 39l-10 15q-48 13 -100 13q-231 0 -420 -7q-40 -2 -133.5 -15.5t-140.5 -9.5 q-133 10 -223 9q-33 0 -37 -9q-10 -37 -31 -89q-4 -12 -52 -33l6 -5q0 -2 -4 -4t-4 -4z" />
<glyph unicode="`" horiz-adv-x="304" d="M40 965q0 -29 4 -33q19 -21 74 -21q69 0 119 31v17q0 33 -56 70l8 9q-2 8 38 47q48 44 50 48l-1 13l-14 4l-2 -2q-42 2 -81.5 -15t-57 -18t-46.5 -13q-35 -35 -35 -137z" />
<glyph unicode="a" horiz-adv-x="689" d="M-17 37q0 -19 23 -20q85 0 171 68q21 17 139 131q12 15 31 9l7 -15q-2 -8 -12.5 -34t-10.5 -39q0 -31 41 -54q33 -19 67 -19q54 0 81 21l14 -4q59 49 59 106q0 15 -7.5 42t-7.5 39q-2 6 5.5 15.5t7.5 13.5l-23 15l-7 -4q-12 -29 -10 -59l-12 -4q-21 -35 -34 -27 q-8 6 -10 42l10 16v21l9 11l-15 29h13l-1 17q0 78 84 210q99 152 112 205l-29 2q-29 -15 -79 -55t-79 -55q-40 -21 -88 -33q-8 0 -18 -4q-15 -12 -44 -36l-23 -2q-62 -56 -158 -168q-118 -137 -120 -177l-9 -6q-4 -10 -48 -96q-29 -56 -29 -102zM148 198v20q15 33 52 110 q15 33 54 69l66 62q13 12 40 17q37 8 43 10l40 -8q-2 -8 -6 -19q-12 -15 -38 -47q-6 -17 -23 -48q-6 0 -12 -2q-10 -10 -42 -67l-10 -4q-4 -6 -11 -19h-10q-10 -17 -39 -47q-33 -12 -96 -38z" />
<glyph unicode="b" horiz-adv-x="624" d="M40 121q0 -54 43 -59h7q28 0 87 25q62 25 87 48q37 33 191 92q62 31 79 75q8 2 17 10q2 23 10 68h9l6 15l14 10q-2 13 -2 30q0 21 3 47q6 60 6 77q0 66 -36 119q-21 31 -52 23q-119 -29 -191 -169l-16 2l-1 21q29 44 107 223q-2 10 -1 27q27 52 53 116q37 85 35 114 q0 15 33 48.5t29 55.5q-5 18 -18 18q-2 0 -5 -1q-106 -23 -195 -25q-69 -2 -77 -44q-4 -17 32.5 -38.5t36.5 -31.5q-4 -10 -15 -31q-31 -54 -46 -131q-23 -118 -27 -131q-35 -100 -106 -302q-96 -277 -97 -301zM214 260q0 6 10.5 16.5t10.5 16.5q10 39 73 162q19 25 38.5 49 t46.5 39q35 19 60 20q31 0 31 -27q0 -91 -29 -122q-12 -6 -29 -23q-15 -40 -45 -71q-40 -40 -48 -54q-2 -2 -43 -18.5t-47 -16.5q-29 0 -29 29z" />
<glyph unicode="c" horiz-adv-x="660" d="M40 106l16 -21l2 -23q33 -13 100 -14q152 0 283 110q8 8 10 19q2 10 0 25v25q0 8 -11.5 21.5t-17.5 13.5q-27 4 -55 -18t-53 -42q-40 -25 -60 -25q-37 0 -44 23l10 6l-16 50l27 124q17 73 52 111l4 20q21 19 79 71q12 11 59 11h8q13 0 41.5 -6.5t41.5 -6.5q44 0 81 47.5 t37 93.5v15l-21 2q-89 0 -243 -60q-146 -58 -224 -115q-8 -13 -28 -41q-6 -6 -52 -181l3 -15q-13 -39 -17 -110q-4 -77 -12 -110z" />
<glyph unicode="d" horiz-adv-x="961" d="M40 79l27 -19l29 -2h12q114 0 241 150l96 116l12 -4q0 -21 -14.5 -61.5t-14.5 -60.5q0 -65 63 -65h2q104 0 147 35l27 -2q31 25 30 54q0 54 -34 54q-4 0 -73 -12l-12 15q0 183 283 804q4 8 45 79q30 54 28 81l-44 -16l-10 8q-40 0 -113 -40q-79 -44 -79 -79 q0 -8 4.5 -25.5t4.5 -25.5q0 -21 -32 -59v-19v-7q0 -35 -37 -82q-33 -39 -65 -77l3 -33q0 -40 -7 -65l-25 -22l-33 8q-108 0 -252 -114q-170 -341 -170 -360l2 -19q-35 -62 -41 -135zM222 268q6 37 40 94q25 27 69 87q37 60 77 139q16 32 56 32h2q21 0 36.5 -17.5 t15.5 -38.5q-6 -60 -34 -123q-10 -21 -66 -61.5t-64.5 -51t-34.5 -52t-45 -41.5h-39q-13 29 -13 33z" />
<glyph unicode="e" horiz-adv-x="587" d="M40 135q0 -92 101 -93q77 0 156 24q106 31 106 86v6q-2 12 19 33t21 31q0 65 -39 65h-1q-25 0 -67.5 -44.5t-85.5 -44.5q-75 0 -75 43q0 15 22.5 56.5t35.5 49.5l189 85q96 54 127 156q14 42 12 59l-2 25q-29 29 -64 29q-166 0 -262 -69q-89 -62 -164 -216q-4 -8 0 -21 q4 -15 4 -23q0 -40 -16.5 -118.5t-16.5 -118.5zM233 432v17q13 25 37 58q12 8 34 27q19 27 43 27q29 0 29 -27q0 -33 -35 -70q-10 -4 -23 -7q-40 -33 -56 -33q-10 0 -29 8z" />
<glyph unicode="f" horiz-adv-x="818" d="M-717 -480l37 -69h27q-2 0 59.5 -6t109.5 -6t81 6q102 19 264 120q131 81 152 107q6 6 12 20q25 35 172 200q106 119 146 214q15 35 37 131q19 83 46 129q2 4 2 10t-6 21t-6 23l27 81q42 23 116 25q104 4 121 6q31 4 39 79l-52 23q-56 -10 -170 -23l-13 11q31 64 104 176 l-6 29q31 29 54 65l-14 108q27 -23 47 -23q15 0 56.5 34.5t72.5 40.5l134 46q133 44 214 44q110 0 110 -83q0 -11 -2 -22q-4 -27 6 -27q23 0 83 94q50 79 69 123q-79 8 -146 8q-98 0 -201 -19q-62 -12 -208 -50q-137 -2 -275 -97q-119 -81 -208 -208l-50 -241 q-10 -17 -41 -17q-13 0 -37 4t-38 4q-29 0 -42 -23l-27 -47l27 -36l90 2l29 -4q-8 -25 -15 -98q-6 -64 -23.5 -97.5t-109.5 -234.5q-64 -141 -124 -229q-35 -58 -157 -156q-143 -116 -216 -116q-19 0 -33 10q-25 17 -66 17q-21 0 -52.5 -4.5t-37.5 -4.5q-25 0 -29 17 q-4 10 -12 12h-13q-39 -25 -114 -99z" />
<glyph unicode="g" horiz-adv-x="930" d="M40 -293q0 -40 24 -73q10 -13 107 -25q71 -8 124 -8q8 0 42.5 14.5t55.5 14.5t35 -13q60 -56 77 -56q8 0 7.5 21t9.5 21q15 0 226 -65q218 -69 250 -74q96 -13 144 -13q31 0 48 19q13 13 13 24q0 5 -3 9q-100 173 -194 266q-64 62 -149 108q-92 48 -119 71 q-94 83 -295 131v12q0 2 -11.5 6.5t-9.5 8.5q10 21 50 48l8 31q133 37 189 67q94 52 136 143q31 71 95 212q4 8 4 25q0 46 -27 48h-8q-38 0 -102 -16q-71 -17 -106 -17l-6 6q-108 -13 -270 -73l-4 -16q-81 -13 -82 -159q0 -44 40 -104q4 -6 73 -89l-4 -21q-33 -23 -90 -75 l6 -16l-20 -36q8 -48 118 -116q37 -23 196 -87q154 -62 178 -65q114 -21 225 -154q6 -8 -6 -37l6 -12q-12 -10 -35 -26q-2 -1 -8 -1q-35 0 -213 58q-214 71 -247 72q-12 0 -40.5 1.5t-44.5 1.5h-11q-38 0 -102 12q-87 13 -102 33v15q52 31 63 39q39 29 45 56q6 25 -16 30 q-10 4 -46 4q-91 0 -134 -29t-82 -111q-8 -15 -8 -41zM459 389q6 8 17 25l-14 6l16 6q21 79 50 98q10 4 31 19q15 12 75 12q40 0 40 -43q0 -10 -5 -34l1 -4l-7 -2q-2 -25 -14 -69q-92 -152 -138 -153q-46 0 -43 27l8 58q-10 25 -17 54z" />
<glyph unicode="h" horiz-adv-x="768" d="M40 69l6 -25l33 -7l171 100l-1 19l50 96q98 187 108 201q39 48 175 133q6 2 9 2q17 0 29 -39q8 -29 8 -52q0 -46 -50 -127v-14v-5q0 -31 -40 -92q-44 -66 -45 -95q0 -33 70 -72q62 -36 98 -36h2l21 4q25 27 21 42q-2 10 -22 43.5t-20 43.5q0 42 39.5 152t39.5 170 q0 100 -8 131q-20 77 -87 77q-39 0 -109 -70q-83 -81 -112 -94l-12 6q31 114 50 167q35 98 75 160q12 17 22.5 57.5t20.5 56.5l-4 13q37 35 52 81l-12 35q-27 -8 -38 -8q-15 0 -43 8t-44 8q-23 0 -95 -21.5t-88 -32.5l18 -33l44 -25q23 -12 23 -36q0 -67 -79 -205v-25 q0 -46 -31 -146q-15 -42 -42 -128q-56 -189 -133 -304q-27 -40 -70 -114z" />
<glyph unicode="i" horiz-adv-x="475" d="M40 89q-2 -7 -2 -12q0 -16 18 -21h5q29 0 105 36q69 35 108 62l32 -2q4 10 45 31q4 2 2 12q-6 10 -4 13q8 15 19 54l-8 15l-19 8q-15 -6 -50 -17q-19 -10 -21 -8q-4 6 -6 19t0 18q17 31 54 163q23 56 38 104q19 60 20 85q0 13 -6 27l-44 23q-26 -9 -66 -36 q-48 -46 -63 -125q-17 -91 -35 -124q4 -8 6 -17q-2 -23 -16 -62l2 -9q-60 -96 -114 -237zM281 977q0 -56 29 -56h19q42 0 87.5 54t45.5 98l-2 4q-2 2 0 4q12 29 12 35q0 24 -6 24q-1 0 -2 -1q-23 -6 -59 -27q-56 -52 -108 -93q-15 -12 -16 -42z" />
<glyph unicode="j" horiz-adv-x="743" d="M-146 -418q4 -4 13 -6q106 50 318 149.5t293 183.5q23 23 58 191q39 185 52 222q13 29 38 85q27 64 25 79l-6 7q60 110 83 181l-19 33l-39 21q-10 -8 -65.5 -37.5t-70.5 -100.5q-10 -48 -14 -56l4 -4q0 6 0 -2q2 -8 2 -23q0 -17 -17 -52q-6 -2 -18 -25 q-39 -123 -127 -366q-56 -133 -108 -185q-6 -6 -27 -35q-12 -19 -23 -19q-60 -4 -192.5 -94.5t-159.5 -146.5zM738 981q0 -35 37 -35h19q66 52 82 76t33 97q-2 6 -13 12v2q-4 8 -10 8q-21 0 -88 -56q-2 -6 -12 -20q-48 -44 -48 -84z" />
<glyph unicode="k" horiz-adv-x="735" d="M40 79l10 -62q71 27 123 101l14 3q10 13 42 77q25 48 50 72q4 4 25.5 -11.5t23.5 -15.5l7 -23l-7 -8l40 -64l-2 -2q-25 33 -54 106l17 -13q13 -96 58 -189q52 -104 122 -152q46 -33 192 -93q155 -63 197 -63q21 0 54 36v25q0 40 -41 93q-35 44 -75 71h-36l-39 -54l-37 -4 q-33 0 -48 16q-77 94 -133 193q-77 132 -77 201v7q0 17 -23 30l12 18q52 10 94 44q52 40 52 87q0 70 2 70v-1q-7 71 -47 71q-7 0 -15 -2q-127 -35 -181 -86l-4 9q19 25 33 79q12 48 27 85q17 46 56 141q33 81 89 115q17 12 29 47q4 11 4 20q0 25 -26 37q-23 12 -77 12 q-40 0 -129 -17q-127 -25 -127 -54q0 -10 17 -20l35 -19q2 -10 10 -23l15 -4q0 -2 3 -9.5t3 -11.5q-2 -54 -35 -171q-37 -133 -44 -178q-6 -31 -19 -75q-48 -73 -47 -98l-15 -8q0 -10 -9.5 -23t-11.5 -19q-21 -135 -97 -293zM316 412q0 52 40 62q21 6 29 10l4 13q23 0 62 -4 q2 -3 4 -9q0 -25 -52 -56q-8 -6 -37 -25l-12 -8h-19q-8 0 -9 2q-12 8 -10 15z" />
<glyph unicode="l" horiz-adv-x="498" d="M40 85l18 -19l11 -2q71 0 137 74t66 145q0 22 -8 39h-2q48 127 133 385q60 214 92.5 290t84.5 234l-6 12q-29 -12 -154 -85q-133 -79 -133 -93q-2 -10 29 -36.5t31 -32.5q0 -13 -42 -100q-48 -98 -52 -110q-8 -19 -8 -58v-27q0 -71 -71 -260l-100 -270q-12 -27 -26 -86z " />
<glyph unicode="m" horiz-adv-x="1173" d="M40 21l2 -17l25 -6q31 0 99 48q48 35 88 73l2 20q44 40 118 137q33 42 77 107q8 29 35 70l-4 15q33 23 57 52l4 10l16 6l5 7l12 -2q10 -31 10 -38q0 -71 -75 -204l-110 -195q-10 -19 11 -42q12 -12 58 -12q60 0 147 69l7 35l12 8q21 64 54 140q10 8 21 35l17 8 q19 33 48 100l8 -4q8 25 60 71.5t77 46.5l17 -2v-19q-19 -29 -38 -56q-19 -35 -18 -64l-7 -2q-33 -69 -33 -123q0 2 7.5 -73.5t7.5 -107.5q0 -19 -4 -27q-13 -39 -13 -60q0 -67 60 -102q48 -29 119 -29q31 0 62 31t35 62l-6 15q21 12 21 29q0 52 -58 73q-25 10 -58 102 q-29 79 -32 112q-2 17 -2 34q0 75 44 139q29 42 110 118q83 76 83 104q0 7 -9 15q-11 10 -16 10q-125 0 -251 -87q-81 -56 -200 -181q-2 -2 -6 -2q-27 0 -27 21q0 12 21 59t21 59q0 23 -20 51t-43 24q-35 -6 -79.5 -13.5t-72.5 -23.5q-31 -37 -89 -98l2 -29q-23 -19 -31 -17 q-10 2 -29 31l16 23q0 50 -24 73q-71 67 -129 68q-52 0 -90 -37l8 -21l-26 -23v-31q46 -39 126 -127q6 -10 6 -16q0 -12 -13.5 -39.5t-13.5 -41.5q0 -52 -56 -133q-33 -46 -101 -125q-54 -64 -52 -81z" />
<glyph unicode="n" horiz-adv-x="843" d="M40 39q0 -14 35 -14q83 0 129 39q29 23 63.5 86.5t63.5 86.5v31q13 12 35 65q17 25 41 81l-4 10l13 8q13 39 69 97.5t91 58.5q13 0 25 -17.5t8 -31.5q-10 -12 -29 -36q2 -6 2 -16q-31 -89 -98 -260q-2 -4 3.5 -9.5t5.5 -9.5q0 -12 -13.5 -39.5t-13.5 -39.5q2 -31 41 -50 q31 -15 67 -15q54 0 110 20q45 16 45 56q0 10 -3 22l-2 2q17 10 18 31q0 79 -41 79q-6 0 -17.5 -8t-16.5 -6q-17 4 -20 23q0 10 18 19l-2 18q-1 6 -1 13q0 87 111 266q38 60 38 93v2q0 13 -4 23l10 15q-12 -4 -110 -17q-69 -10 -102 -39l-25 -4q-182 -155 -194 -155 q-1 0 -1 1q-4 13 12.5 48t10.5 51q-27 80 -109 80h-2q-19 0 -108 -17q-44 -8 -54 -112v-5q0 -28 38 -56l18 -2q13 0 32.5 12.5t28.5 18.5q10 6 10 -25q-2 -17 -2 -20q0 -15 -25 -36l8 -16q-15 -71 -103 -200q-100 -146 -100 -200z" />
<glyph unicode="o" horiz-adv-x="552" d="M40 96q0 -50 68 -50q21 0 160 29q116 23 179 143q27 50 27 84q0 8 -2 16l10 10q4 40 25 144q19 91 19 145q0 31 -14 52q-6 10 -15 5v12q-80 9 -118 9q-13 0 -21 -1q-15 -8 -52 -18q-29 -17 -83 -42q-21 -13 -69 -31q-12 -2 -36 -44q-31 -42 -29 -66l-6 -4 q-2 -12 -23 -102q-2 -12 -10 -37.5t-8 -39.5q0 -8 4 -25t4 -25q0 -27 -5 -82t-5 -82zM131 195v17q0 42 6 54q42 81 46 131l10 8l2 17q39 29 52 85q4 15 24 35.5t25 28t27 16t31 8.5q56 0 56 -46q0 -15 -11.5 -43t-13.5 -40l6 -7q-35 -67 -77 -197q0 -35 -52 -81v-8 q-27 -15 -81 -36q-2 -1 -4 -1q-10 0 -23 18q-6 13 -23 41z" />
<glyph unicode="p" horiz-adv-x="726" d="M-235 -636l12 -17q67 0 177 27q135 33 175 36q21 4 66 60l-18 29h-46q-52 4 -52 31q0 6 2 14.5t6 20.5q0 6 19 17l-6 15l14 31l-4 16l-4 3q25 27 62 207q37 170 65 183v17l19 -10q150 50 178.5 75t118.5 193q118 220 131 328l-10 15l-19 8q-44 0 -113 -29 q-75 -33 -108 -39q-17 -4 -52 2q-42 6 -54 6q-27 0 -119.5 -23t-115.5 -35l-18 -34q10 -10 52 -24q37 -10 43 -30q2 -8 2 -20q0 -23 -22.5 -73t-22.5 -75q0 -6 -8.5 -12.5t-10.5 -10.5q-2 -12 3 -35t5 -33q-6 -10 -14 -28l6 -6q-12 -75 -81 -314q-75 -256 -100 -305 q-12 -23 -89 -100q-69 -69 -69 -81zM245 171q0 123 90 293q19 37 133 37q8 0 31 -6l12 -19q-13 -35 -64.5 -102.5t-63.5 -101.5q-8 -27 -32 -81q-35 -48 -68 -48q-39 0 -38 28z" />
<glyph unicode="q" horiz-adv-x="630" d="M37 302q0 -17 2 -44q2 -33 1 -46q0 -75 12 -108q19 -56 73 -56q50 0 114 62q56 54 79 108l17 -4l2 -21q-17 -27 -52 -114q-29 -71 -60 -108l4 -29q-21 -25 -55 -108q-32 -82 -32 -108q0 -29 -24 -52q-31 -29 -37 -40l6 -19l21 -14q67 24 159 24q19 0 39 -1 q21 -2 45.5 10.5t24.5 32.5q0 17 -33 38t-33 29q21 56 46 123q17 60 24 66h3q-2 15 -2 29q0 38 12 71q8 21 108 312q90 262 102 301q0 58 -42 61h-5q-41 0 -132 -54l-127 -75q-66 -27 -191 -92l-10 -29l-15 -6q0 -19 -14 -48q-19 -39 -21 -46q-8 -23 -9 -45zM148 225 q0 89 56 129h6q46 112 150 149q4 0 18.5 7.5t16.5 7.5q29 0 29 -29q-4 -8 -21 -34q-10 -23 -35 -81q-16 -35 -39 -79q-2 -6 -28 -21l-8 -27q-73 -60 -110 -60q-23 0 -29 6.5t-6 31.5z" />
<glyph unicode="r" horiz-adv-x="655" d="M40 37l2 -12l6 -4q104 12 145 58l13 4q39 40 77 102q48 77 46 112l20 11l54 112q31 60 63 104q8 8 29 17q6 -4 17 -5l12 -18l27 -4q44 25 100 97q53 71 53 113q0 5 -1 10q-2 4 -7 6h-12q-10 -2 -12 -2q-54 0 -121 -50q-21 -15 -106 -85v-10q-29 -17 -60 -17l-9 4l-6 15 l-6 6l4 14q-21 10 -60 48q-25 19 -79 23h-5q-27 0 -60 -21l2 -12l-20 -21h-9q-25 -17 -18 -33q21 -42 36.5 -49t73.5 -14q4 -2 4 -16q0 -15 -10 -23l8 -23l-9 -8q-2 -42 -31 -130.5t-51 -120.5t-57 -94q-42 -73 -43 -84z" />
<glyph unicode="s" horiz-adv-x="828" d="M40 13q0 -48 97 -48q96 0 216 23q104 19 148 43q79 40 87 117q2 10 2 101q0 56 -43 107q-23 29 -79 72q-42 33 -46 50v7q0 41 67 79q66 39 116 39h10q4 -17 3 -19q-13 -19 -49.5 -42.5t-44.5 -32t-10 -31.5l12 -21l25 -8q8 6 44 48q13 17 80 51t86 51q40 35 40 81v12 q-23 9 -40 9h-4q-131 0 -281 -46q-200 -62 -200 -162q0 -48 53 -88q48 -29 97 -58q52 -42 52 -116q0 -189 -270 -189q-44 0 -44 43q0 35 38.5 63.5t74.5 28.5q13 0 38.5 -8.5t37.5 -8.5h1l14 6l2 -6l13 11h4q13 25 14 31q0 40 -104 41q-100 0 -176 -64q-81 -67 -81 -166z " />
<glyph unicode="t" horiz-adv-x="581" d="M40 46q2 -13 33 -13q69 0 193 59q137 66 137 126q0 90 -28 90h-1q-23 0 -59 -34.5t-61 -34.5q-8 0 -13 23l21 23q23 127 60 227q6 13 54 81q2 4 15.5 -2.5t15.5 -6.5q134 0 146 106l-15 17q-12 -2 -51 -11q-31 -8 -50 -8q-49 0 -49 21q0 3 1 6q6 13 28 46t22 52 q0 31 -56 31q-91 0 -117 -44l-50 -104q-8 2 -19 5q-64 0 -93 -5l-13 -12q6 -17 57.5 -36.5t58.5 -38t7 -43.5q0 -33 -12 -77l-21 -79q-8 -33 -83 -181q-58 -116 -58 -175v-8z" />
<glyph unicode="u" horiz-adv-x="801" d="M40 75l2 -29l16 -19h23q44 0 164 71l4 18q12 4 102 86q23 12 67 43l6 -2l6 -16h2q-6 -67 -6 -86q0 -37 23 -65t60 -28q10 0 27 4t27 4q12 0 21 -4l58 15q-97 51 -97 151l10 11v2q0 2 -16 18l16 7v-2q12 48 23 87l13 8q25 77 37 108q25 64 51 98.5t80 103.5q17 39 16 50 q-4 8 -29 8q-83 0 -149 -72q-8 -8 -63 -90q-23 -35 -118 -156q-73 -94 -110 -160q-10 -8 -29 -25l-17 -2q19 29 36.5 91.5t31.5 87.5q0 8 -2 25l9 4q21 69 54 152l23 10l8 23q-27 40 -44 58q-27 25 -66 25q-83 0 -100 -79l-8 -158l-2 -29l-13 -8q-46 -177 -131 -298 q-17 -23 -16 -41z" />
<glyph unicode="v" horiz-adv-x="884" d="M42 518q-1 -4 -1 -9q0 -16 15 -37q27 -39 29 -46l11 -2q33 -42 58 -43q52 0 52 29q0 19 -26 54t-30 48q-1 4 -1 8q0 32 76 33q17 0 64 -12q28 -8 48 -8q8 0 16 1l1 -14q0 -13 -19 -38q-21 -31 -25 -39q-13 -33 -15 -77q0 -10 -15.5 -36t-11.5 -35q6 -15 6 -31v-33 q-2 -44 -2 -31q0 -75 42 -96q52 -27 116 -35q25 -3 89 -3h34q89 0 110 17q31 40 59 81l-3 19q2 2 2 6t-6 16.5t-4 16.5q15 17 35 54q2 40 15 119q4 13 25 102q8 31 37 95.5t34 97.5l-11 21q-17 8 -39 8q-50 0 -96 -34t-66 -80l16 -4l-2 -10q13 -19 48 -79l-8 -17l12 -8 q-8 -12 -10 -13q12 0 6 -14q-8 -25 -27 -71q-56 -77 -71 -133q-2 -12 -43 -29l-3 -9q-19 -13 -45 -14q-52 0 -69 4q-40 10 -44 75l7 10l-2 58l-9 9q-1 10 -1 24q0 27 5 67q29 57 29 70q0 14 26 55l20 8q2 4 25 36q17 23 17 39q0 13 -23 17q-44 10 -85 10h-90q-29 0 -58 -2 h-29q-81 0 -98 -2q-60 -12 -72 -54q-10 -33 -25 -110z" />
<glyph unicode="w" horiz-adv-x="961" d="M40 751l10 -11q-4 -17 -4 -39q0 -50 23 -102q25 -60 66 -81l27 6q6 25 4 46l17 16q35 -12 58 -68q21 -48 21 -90q0 -23 -10.5 -72.5t-10.5 -76.5t-31 -57l-4 -16q-56 -69 -135 -140l4 -14l10 -10l33 -2h6q54 0 162 61q114 65 138 111l23 10q2 13 48 55.5t60 42.5 q8 0 8 -29q0 -27 -20 -73q-6 -15 -41.5 -46t-39.5 -54q-1 -5 -1 -10q0 -34 51 -35q54 0 143 35q98 39 123 85q19 35 60 106q17 31 36.5 98t42.5 100l-2 25q2 2 14 37l3 2l2 25l-2 25q-39 27 -50 27q-10 0 -21 -6q-63 -29 -63 -87q0 -19 4.5 -55.5t4.5 -54.5q0 -58 -44 -125 q-6 -2 -17 -9v-16l3 -2q-37 -38 -57 -38h-2h-6l-10 13q2 37 18 122q15 79 15 123q0 144 -69 144q-33 0 -60 -37.5t-27 -71.5q0 -12 6 -34t6 -34q0 -17 -18.5 -50t-34 -42.5t-55.5 -67.5q-33 -46 -68 -52q-13 -2 -13 19q0 8 2 25.5t2 25.5q0 27 12.5 81.5t12.5 81.5 q0 12 -10 37v-4q-73 123 -131 168q-37 29 -185 94h-2q-11 0 -35 -35z" />
<glyph unicode="x" horiz-adv-x="953" d="M40 44q0 -12 10 -25l14 -4q66 0 136 58q8 8 122 116q71 67 123 83q4 1 7 1q23 0 43 -46q35 -79 58 -104q53 -57 147 -57h3q85 0 85 59q0 27 -21 70.5t-45 49.5l-7 -8l-18 2q-4 -2 -23 -27q-12 -15 -25 -12q-39 13 -70.5 77t-31.5 110q0 25 23 46q21 15 45 33q37 31 63 43 l14 21q25 4 44 23l54 -12q116 62 137 181l-20 16h-19q-62 0 -164 -69q-85 -58 -138 -118l-14 -4q-8 -12 -24 -47.5t-24 -29.5q-19 15 -38.5 66.5t-34.5 66.5q-44 40 -79 60q-42 23 -100 23q-39 0 -52 -10q-4 -2 -33 -34q6 -10 8 -27q-19 -25 -20 -64q0 -10 13.5 -42.5 t21.5 -42t31 -9.5q17 0 40 25t35 25q19 0 42 -46.5t22 -67.5l9 -12l2 -17q2 -19 -11 -44l-6 2q-58 -56 -97 -75q-35 -4 -117 -43q-19 -12 -69.5 -77t-50.5 -83z" />
<glyph unicode="y" horiz-adv-x="741" d="M-603 -270q0 -19 35 -49q30 -26 49 -26h5q79 12 271 23q112 6 185 43q96 46 247 185q6 6 28 3t28 4q21 29 57 64l64 60q6 8 14.5 57t14.5 56q6 15 154 268q123 210 123 274q1 19 -7 19q-3 1 -6.5 1t-7.5 -1q-8 -2 -11 -2q-58 0 -89 -91q-15 -56 -50 -167q-31 -91 -80 -91 h-1q-35 0 -35 62q0 17 3 53.5t3 54.5q0 104 -77 104q-42 0 -119 -70.5t-93 -114.5l6 -23l23 -16q27 15 87 60l34 -23l10 -37l-15 -27q36 -133 36 -202q0 -23 -25 -48q-33 -33 -36 -42q-91 -175 -318 -243q-115 -34 -240 -34q-22 0 -44 1l-42 2q-26 53 -56 53q-3 0 -6 -1 q-50 -10 -84.5 -49.5t-34.5 -89.5z" />
<glyph unicode="z" horiz-adv-x="866" d="M40 611q0 -114 135 -183l58 31l2 30q2 21 -29 47.5t-31 35.5q0 29 48 29q37 0 104.5 -26t104.5 -26q6 0 56.5 13.5t50.5 11.5t-1 -6q-52 -73 -116 -138q-44 -42 -129 -128l13 -9h-17q-21 -12 -54 -43q-17 -25 -60 -69l-2 -10q-48 -25 -107 -102q-13 -17 -14 -59l-2 -10 q23 -15 29 -13q52 17 171 63q9 4 40 4q21 0 51 -2q6 0 16.5 -2t16.5 -2q13 13 21 12q58 -8 120.5 -15.5t105 -40.5t46.5 -35q35 -23 106 -36q50 -10 69 -10q29 0 38 4l-5 13l4 -2q3 -2 9 -2t6 27q0 37 -48 86t-87 63l-29 -8q-8 -6 -8 -21q0 -8 2 -21.5t2 -19.5q0 -15 -9 -11 q-50 17 -87 54q-44 42 -66 54q-44 23 -140 23q-15 0 -46 -9.5t-47 -9.5l-11 3q44 39 88 81q33 31 153 168q98 112 158 164q25 21 75 65q58 52 63 68l-2 17l-44 2h-5q-52 1 -151 -37q-104 -40 -154 -40q-60 0 -174.5 26t-174.5 26q-75 0 -106 -46q-6 -6 -6 -29z" />
<glyph unicode="{" horiz-adv-x="612" d="M40 91q0 -29 51 -29q40 0 116 28t117 28l4 17h-83q-67 2 -68 62q0 54 62 134l-6 18q56 46 56 127q0 19 -46 50q-46 30 -46 38q0 6 5 10q108 87 133 129q33 54 33 177q0 94 73 178q74 68 145 137l-10 3q-139 -98 -208 -156q-150 -125 -150 -185q0 -21 11.5 -61.5 t11.5 -61.5q0 -46 -14 -89q-4 -15 -43.5 -33.5t-46.5 -31.5q-8 -19 54 -62l7 -27q-33 -100 -106 -242l12 -6q-64 -77 -64 -152z" />
<glyph unicode="|" horiz-adv-x="556" d="M40 -98q-2 -12 8 -12q19 0 53.5 27t44.5 46q81 143 156 413q21 75 114 458q62 256 112 361q2 6 2 7q0 6 -6 6q-21 0 -65.5 -33.5t-57.5 -57.5q-131 -220 -218 -585q-21 -87 -143 -630z" />
<glyph unicode="}" horiz-adv-x="595" d="M40 21l8 -8q39 40 138 104t138 101q69 67 69 135q0 10 -5 31t-5 30q0 10 4 18l-4 3l-13 27q15 48 15 58q0 33 4 39q10 13 46.5 32.5t44.5 36.5q6 13 -20 29q-17 10 -34 21q-10 8 -10 35q0 37 77 179t75 206l-2 46q-46 -2 -133.5 -27t-133.5 -27q-10 0 -10 -19q12 -2 42 0 q33 2 47 2q62 0 61 -60q0 -50 -55.5 -155t-55.5 -137q0 -17 44 -48t44 -37q0 -4 -4 -8q-96 -66 -127 -139q-17 -42 -30.5 -145t-38.5 -159q-17 -39 -85 -87q-73 -50 -91 -77z" />
<glyph unicode="~" horiz-adv-x="809" d="M40 929l10 -2q13 0 55.5 32.5t56.5 32.5q21 0 69 -34q10 2 27 -4q2 -4 -2 -14q-2 -10 2 -13q66 -75 226 -75q42 0 70 17t61 35l-4 23q10 0 23 5q23 27 75 67.5t73 63.5l-2 6q-42 -10 -143 -63.5t-123 -53.5q-48 0 -149 68.5t-163 68.5q-64 0 -107 -47.5t-55 -112.5z" />
<glyph unicode="&#xad;" d="M40 501q0 -25 40.5 -47t40.5 -49q0 -19 -65 -72h10l3 -4q156 29 205 29q4 0 18 -4.5t18 -4.5q62 12 79 11q39 0 131 -25q85 -23 129 -17q8 2 8 4q0 -44 -85.5 17.5t-85.5 84.5q0 21 19 38q6 6 36 27l-9 6q-4 0 -13.5 3t-13.5 3q-13 0 -43 -7t-44 -7q-21 -4 -60 0 q-52 4 -61 4q-17 0 -53 -10.5t-53 -10.5q-21 0 -71.5 24t-63.5 24q-15 0 -16 -17z" />
<glyph unicode="&#x2000;" horiz-adv-x="701" />
<glyph unicode="&#x2001;" horiz-adv-x="1403" />
<glyph unicode="&#x2002;" horiz-adv-x="701" />
<glyph unicode="&#x2003;" horiz-adv-x="1403" />
<glyph unicode="&#x2004;" horiz-adv-x="467" />
<glyph unicode="&#x2005;" horiz-adv-x="350" />
<glyph unicode="&#x2006;" horiz-adv-x="233" />
<glyph unicode="&#x2007;" horiz-adv-x="233" />
<glyph unicode="&#x2008;" horiz-adv-x="175" />
<glyph unicode="&#x2009;" horiz-adv-x="280" />
<glyph unicode="&#x200a;" horiz-adv-x="77" />
<glyph unicode="&#x2010;" d="M40 501q0 -25 40.5 -47t40.5 -49q0 -19 -65 -72h10l3 -4q156 29 205 29q4 0 18 -4.5t18 -4.5q62 12 79 11q39 0 131 -25q85 -23 129 -17q8 2 8 4q0 -44 -85.5 17.5t-85.5 84.5q0 21 19 38q6 6 36 27l-9 6q-4 0 -13.5 3t-13.5 3q-13 0 -43 -7t-44 -7q-21 -4 -60 0 q-52 4 -61 4q-17 0 -53 -10.5t-53 -10.5q-21 0 -71.5 24t-63.5 24q-15 0 -16 -17z" />
<glyph unicode="&#x2011;" d="M40 501q0 -25 40.5 -47t40.5 -49q0 -19 -65 -72h10l3 -4q156 29 205 29q4 0 18 -4.5t18 -4.5q62 12 79 11q39 0 131 -25q85 -23 129 -17q8 2 8 4q0 -44 -85.5 17.5t-85.5 84.5q0 21 19 38q6 6 36 27l-9 6q-4 0 -13.5 3t-13.5 3q-13 0 -43 -7t-44 -7q-21 -4 -60 0 q-52 4 -61 4q-17 0 -53 -10.5t-53 -10.5q-21 0 -71.5 24t-63.5 24q-15 0 -16 -17z" />
<glyph unicode="&#x2012;" d="M40 501q0 -25 40.5 -47t40.5 -49q0 -19 -65 -72h10l3 -4q156 29 205 29q4 0 18 -4.5t18 -4.5q62 12 79 11q39 0 131 -25q85 -23 129 -17q8 2 8 4q0 -44 -85.5 17.5t-85.5 84.5q0 21 19 38q6 6 36 27l-9 6q-4 0 -13.5 3t-13.5 3q-13 0 -43 -7t-44 -7q-21 -4 -60 0 q-52 4 -61 4q-17 0 -53 -10.5t-53 -10.5q-21 0 -71.5 24t-63.5 24q-15 0 -16 -17z" />
<glyph unicode="&#x2013;" horiz-adv-x="1090" d="M40 501q0 -25 67 -47t67 -49q0 -19 -107 -72h16l5 -4q259 29 340 29q7 0 30 -4.5t30 -4.5q103 12 131 11q65 0 218 -25q141 -23 214 -17q13 2 13 4q0 -44 -142 17.5t-142 84.5q0 21 32 38q10 6 59 27l-14 6q-7 0 -23 3t-22 3q-22 0 -71.5 -7t-73.5 -7q-35 -4 -99 0 q-87 4 -101 4q-29 0 -88.5 -10.5t-87.5 -10.5q-35 0 -119 24t-105 24q-25 0 -27 -17z" />
<glyph unicode="&#x2014;" horiz-adv-x="2114" d="M40 501q0 -25 134.5 -47t134.5 -49q0 -19 -216 -72h33l10 -4q518 29 681 29q13 0 59.5 -4.5t59.5 -4.5q206 12 262 11q130 0 435 -25q282 -23 428 -17q27 2 27 4q0 -44 -284 17.5t-284 84.5q0 21 63 38q20 6 120 27l-30 6q-13 0 -44.5 3t-45.5 3q-43 0 -142.5 -7 t-145.5 -7q-70 -4 -199 0q-173 4 -203 4q-56 0 -175.5 -10.5t-176.5 -10.5q-69 0 -237 24t-211 24q-50 0 -53 -17z" />
<glyph unicode="&#x2018;" horiz-adv-x="333" d="M40 944q0 -13 16 -21l2 -8l13 2q31 -44 162 -44q29 0 35 15q4 8 4 18q0 87 -47 129q-10 12 -32 11.5t-45 1.5v2l10 8q10 19 44 38l4 14q25 12 62.5 41.5t37.5 48.5q0 13 -4 12q-64 -17 -184 -71q-15 -8 -33 -12l-8 -13l-6 -2l-4 3q-2 -8 -7 -19q-31 -31 -20 -106 q0 -2 3 -8.5t3 -10.5t-3 -14.5t-3 -14.5z" />
<glyph unicode="&#x2019;" horiz-adv-x="335" d="M40 871q0 -25 24 -25q12 0 41.5 16.5t42.5 16.5q25 6 60 26t52 26q2 6 12 17l2 -2l9 8v9q19 15 25 110l-6 4q0 6 2 19.5t2 20.5q0 15 -17 24v9l-17 -2q-33 44 -149 45q-56 0 -56 -37q0 -12 23.5 -67.5t33 -60.5t73.5 -11v-6l-6 -5q-6 -17 -78.5 -64.5t-72.5 -70.5z" />
<glyph unicode="&#x201c;" horiz-adv-x="668" d="M40 998l8 -4q4 -31 14.5 -43.5t24.5 -27.5h19q58 -62 185 -62l15 4l4 8q-8 31 -40 81q-37 60 -47 81l-75 15v2q46 48 72 65q13 12 92 45q66 27 66 40q0 23 -66 23q-89 0 -221 -117l-4 2l-12 -8l-4 -12q-31 -19 -31 -90v-2zM304 998l8 -4q4 -31 14.5 -43.5t24.5 -27.5h19 q58 -62 185 -62l15 4l4 8q-8 31 -40 81q-37 60 -47 81l-75 15v2q46 48 72 65q12 10 92 45q64 27 64 40q0 23 -64 23q-89 0 -222 -117l-3 2l-12 -8l-4 -12q-31 -19 -31 -90v-2z" />
<glyph unicode="&#x201d;" horiz-adv-x="668" d="M40 873q0 -23 66 -23q89 0 220 117l5 -2l10 8l4 12q33 19 33 90v2l-8 4q-4 31 -16 42q-21 21 -23 29h-19q-25 27 -87 46q-54 15 -98 16l-15 -4l-4 -8q8 -31 40 -81q37 -60 47 -81l73 -15v-2q-44 -48 -70 -65q-15 -10 -94 -45q-64 -27 -64 -40zM304 873q0 -23 66 -23 q89 0 220 117l5 -2l10 8l4 12q31 19 31 90v2l-6 4q-4 31 -16 42q-21 21 -23 29h-19q-25 27 -87 46q-54 15 -98 16l-15 -4l-4 -8q8 -31 40 -81q37 -60 47 -81l73 -15v-2q-44 -48 -70 -65q-15 -10 -94 -45q-64 -27 -64 -40z" />
<glyph unicode="&#x202f;" horiz-adv-x="280" />
<glyph unicode="&#x205f;" horiz-adv-x="350" />
<glyph unicode="&#x25fc;" horiz-adv-x="741" d="M0 0v742h742v-742h-742z" />
</font>
</defs>
</svg>
